SamanDere-Regular.ufo
<glyph name="exclam" format="2">
  <advance width="380"/>
  <unicode hex="0021"/>
  <outline>
    <contour>
      <point x="190" y="0" type="curve" smooth="yes"/>
      <point x="262" y="0"/>
      <point x="320" y="58"/>
      <point x="320" y="130" type="curve" smooth="yes"/>
      <point x="320" y="202"/>
      <point x="262" y="260"/>
      <point x="190" y="260" type="curve" smooth="yes"/>
      <point x="118" y="260"/>
      <point x="60" y="202"/>
      <point x="60" y="130" type="curve" smooth="yes"/>
      <point x="60" y="58"/>
      <point x="118" y="0"/>
    </contour>
    <contour>
      <point x="60" y="380" type="line"/>
      <point x="320" y="380" type="line"/>
      <point x="320" y="1400" type="line"/>
      <point x="60" y="1370" type="line"/>
    </contour>
  </outline>
</glyph>
<glyph name="numbersign" format="2">
  <advance width="1624"/>
  <unicode hex="0023"/>
  <outline>
    <contour>
      <point x="542" y="1400" type="line"/>
      <point x="171" y="0" type="line"/>
      <point x="431" y="0" type="line"/>
      <point x="802" y="1400" type="line"/>
    </contour>
    <contour>
      <point x="1142" y="1400" type="line"/>
      <point x="771" y="0" type="line"/>
      <point x="1031" y="0" type="line"/>
      <point x="1402" y="1400" type="line"/>
    </contour>
    <contour>
      <point x="153" y="1073" type="line"/>
      <point x="153" y="813" type="line"/>
      <point x="1564" y="813" type="line"/>
      <point x="1564" y="1073" type="line"/>
    </contour>
    <contour>
      <point x="60" y="580" type="line"/>
      <point x="60" y="320" type="line"/>
      <point x="1471" y="320" type="line"/>
      <point x="1471" y="580" type="line"/>
    </contour>
  </outline>
</glyph>
<glyph name="dollar" format="2">
  <advance width="1104"/>
  <unicode hex="0024"/>
  <outline>
    <contour>
      <point x="422" y="1600" type="line"/>
      <point x="682" y="1600" type="line"/>
      <point x="682" y="-200" type="line"/>
      <point x="422" y="-200" type="line"/>
    </contour>
    <contour>
      <point x="552" y="824" type="line"/>
      <point x="796" y="824"/>
      <point x="998" y="644"/>
      <point x="998" y="414" type="curve" smooth="yes"/>
      <point x="998" y="182"/>
      <point x="796" y="0"/>
      <point x="552" y="0" type="curve" smooth="yes"/>
      <point x="302" y="0"/>
      <point x="100" y="182"/>
      <point x="100" y="414" type="curve"/>
      <point x="356" y="414" type="line"/>
      <point x="356" y="340"/>
      <point x="446" y="238"/>
      <point x="552" y="238" type="curve" smooth="yes"/>
      <point x="687" y="238"/>
      <point x="740" y="340"/>
      <point x="740" y="414" type="curve" smooth="yes"/>
      <point x="740" y="484"/>
      <point x="687" y="576"/>
      <point x="552" y="574" type="curve"/>
    </contour>
    <contour>
      <point x="552" y="574" type="line"/>
      <point x="308" y="574"/>
      <point x="106" y="756"/>
      <point x="106" y="986" type="curve" smooth="yes"/>
      <point x="106" y="1220"/>
      <point x="308" y="1400"/>
      <point x="552" y="1400" type="curve" smooth="yes"/>
      <point x="802" y="1400"/>
      <point x="1004" y="1220"/>
      <point x="1004" y="986" type="curve"/>
      <point x="748" y="986" type="line"/>
      <point x="748" y="1056"/>
      <point x="658" y="1160"/>
      <point x="552" y="1160" type="curve" smooth="yes"/>
      <point x="417" y="1160"/>
      <point x="364" y="1056"/>
      <point x="364" y="986" type="curve" smooth="yes"/>
      <point x="364" y="910"/>
      <point x="417" y="824"/>
      <point x="552" y="824" type="curve"/>
    </contour>
  </outline>
</glyph>
<glyph name="quotesingle" format="2">
  <advance width="340"/>
  <unicode hex="0027"/>
  <outline>
    <contour>
      <point x="60" y="1400" type="line"/>
      <point x="60" y="832" type="line"/>
      <point x="280" y="832" type="line"/>
      <point x="280" y="1400" type="line"/>
    </contour>
  </outline>
</glyph>
<glyph name="asterisk" format="2">
  <advance width="1050"/>
  <unicode hex="002A"/>
  <outline>
    <contour>
      <point x="837" y="863" type="line"/>
      <point x="100" y="463" type="line"/>
      <point x="213" y="237" type="line"/>
      <point x="950" y="637" type="line"/>
    </contour>
    <contour>
      <point x="395" y="975" type="line"/>
      <point x="395" y="125" type="line"/>
      <point x="655" y="125" type="line"/>
      <point x="655" y="975" type="line"/>
    </contour>
    <contour>
      <point x="213" y="863" type="line"/>
      <point x="100" y="637" type="line"/>
      <point x="837" y="237" type="line"/>
      <point x="950" y="463" type="line"/>
    </contour>
  </outline>
</glyph>
<glyph name="plus" format="2">
  <advance width="1050"/>
  <unicode hex="002B"/>
  <outline>
    <contour>
      <point x="950" y="680" type="line"/>
      <point x="100" y="680" type="line"/>
      <point x="100" y="420" type="line"/>
      <point x="950" y="420" type="line"/>
    </contour>
    <contour>
      <point x="395" y="975" type="line"/>
      <point x="395" y="125" type="line"/>
      <point x="655" y="125" type="line"/>
      <point x="655" y="975" type="line"/>
    </contour>
  </outline>
</glyph>
<glyph name="comma" format="2">
  <advance width="520"/>
  <unicode hex="002C"/>
  <outline>
    <contour>
      <point x="330" y="0" type="curve" smooth="yes"/>
      <point x="402" y="0"/>
      <point x="460" y="58"/>
      <point x="460" y="130" type="curve" smooth="yes"/>
      <point x="460" y="202"/>
      <point x="402" y="260"/>
      <point x="330" y="260" type="curve" smooth="yes"/>
      <point x="258" y="260"/>
      <point x="200" y="202"/>
      <point x="200" y="130" type="curve" smooth="yes"/>
      <point x="200" y="58"/>
      <point x="258" y="0"/>
    </contour>
    <contour>
      <point x="200" y="130" type="curve"/>
      <point x="210" y="94"/>
      <point x="158" y="-174"/>
      <point x="0" y="-174" type="curve"/>
      <point x="54" y="-400" type="line"/>
      <point x="288" y="-400"/>
      <point x="356" y="-190"/>
      <point x="460" y="130" type="curve"/>
      <point x="374" y="130"/>
      <point x="286" y="130"/>
    </contour>
  </outline>
</glyph>
<glyph name="slash" format="2">
  <advance width="936"/>
  <unicode hex="002F"/>
  <outline>
    <contour>
      <point x="616" y="1400" type="line"/>
      <point x="60" y="-155" type="line"/>
      <point x="320" y="-155" type="line"/>
      <point x="876" y="1400" type="line"/>
    </contour>
  </outline>
</glyph>
<glyph name="three" format="2">
  <advance width="1012"/>
  <unicode hex="0033"/>
  <outline>
    <contour>
      <point x="60" y="416" type="line"/>
      <point x="60" y="181"/>
      <point x="256" y="0"/>
      <point x="506" y="0" type="curve" smooth="yes"/>
      <point x="750" y="0"/>
      <point x="952" y="181"/>
      <point x="952" y="416" type="curve" smooth="yes"/>
      <point x="952" y="543"/>
      <point x="892" y="630"/>
      <point x="809" y="700" type="curve"/>
      <point x="892" y="770"/>
      <point x="952" y="857"/>
      <point x="952" y="984" type="curve" smooth="yes"/>
      <point x="952" y="1219"/>
      <point x="750" y="1400"/>
      <point x="506" y="1400" type="curve" smooth="yes"/>
      <point x="256" y="1400"/>
      <point x="60" y="1219"/>
      <point x="60" y="984" type="curve"/>
      <point x="310" y="984" type="line"/>
      <point x="310" y="1054"/>
      <point x="400" y="1159"/>
      <point x="506" y="1159" type="curve" smooth="yes"/>
      <point x="610" y="1159"/>
      <point x="694" y="1054"/>
      <point x="694" y="984" type="curve" smooth="yes"/>
      <point x="694" y="878.654"/>
      <point x="596.812" y="814.678"/>
      <point x="478" y="747.905" type="curve"/>
      <point x="478" y="651.721" type="line"/>
      <point x="596.812" y="584.665"/>
      <point x="694" y="521.346"/>
      <point x="694" y="416" type="curve" smooth="yes"/>
      <point x="694" y="346"/>
      <point x="610" y="241"/>
      <point x="506" y="241" type="curve" smooth="yes"/>
      <point x="400" y="241"/>
      <point x="310" y="346"/>
      <point x="310" y="416" type="curve"/>
    </contour>
  </outline>
</glyph>
<glyph name="four" format="2">
  <advance width="1012"/>
  <unicode hex="0034"/>
  <outline>
    <contour>
      <point x="60" y="220" type="line"/>
      <point x="536" y="220" type="line"/>
      <point x="536" y="0" type="line"/>
      <point x="796" y="0" type="line"/>
      <point x="796" y="220" type="line"/>
      <point x="952" y="220" type="line"/>
      <point x="952" y="480" type="line"/>
      <point x="796" y="480" type="line"/>
      <point x="796" y="1400" type="line"/>
      <point x="536" y="1400" type="line"/>
      <point x="60" y="480" type="line"/>
    </contour>
    <contour>
      <point x="320" y="480" type="line"/>
      <point x="536" y="897.479" type="line"/>
      <point x="536" y="480" type="line"/>
    </contour>
  </outline>
</glyph>
<glyph name="five" format="2">
  <advance width="1010"/>
  <unicode hex="0035"/>
  <outline>
    <contour>
      <point x="60" y="656" type="line"/>
      <point x="126" y="1400" type="line"/>
      <point x="894" y="1400" type="line"/>
      <point x="894" y="1142" type="line"/>
      <point x="354.5" y="1142" type="line"/>
      <point x="338" y="944" type="line"/>
      <point x="397" y="978"/>
      <point x="448" y="988"/>
      <point x="510" y="988" type="curve" smooth="yes"/>
      <point x="754" y="988"/>
      <point x="950" y="846"/>
      <point x="950" y="494" type="curve" smooth="yes"/>
      <point x="950" y="142"/>
      <point x="754" y="0"/>
      <point x="510" y="0" type="curve" smooth="yes"/>
      <point x="260" y="0"/>
      <point x="60" y="186"/>
      <point x="60" y="420" type="curve"/>
      <point x="314" y="420" type="line"/>
      <point x="314" y="350"/>
      <point x="404" y="240"/>
      <point x="510" y="240" type="curve" smooth="yes"/>
      <point x="614" y="240"/>
      <point x="692" y="344"/>
      <point x="692" y="494" type="curve" smooth="yes"/>
      <point x="692" y="644"/>
      <point x="629" y="760"/>
      <point x="510" y="760" type="curve" smooth="yes"/>
      <point x="387" y="760"/>
      <point x="341" y="716"/>
      <point x="314" y="655" type="curve"/>
    </contour>
  </outline>
</glyph>
<glyph name="six" format="2">
  <advance width="1010"/>
  <unicode hex="0036"/>
  <outline>
    <contour>
      <point x="60" y="444" type="curve" smooth="yes"/>
      <point x="60" y="856" type="line" smooth="yes"/>
      <point x="60" y="1208"/>
      <point x="256" y="1401"/>
      <point x="500" y="1401" type="curve" smooth="yes"/>
      <point x="812" y="1401"/>
      <point x="910" y="1262"/>
      <point x="910" y="1028" type="curve"/>
      <point x="652" y="1028" type="line"/>
      <point x="652" y="1098"/>
      <point x="614" y="1160"/>
      <point x="500" y="1160" type="curve" smooth="yes"/>
      <point x="362" y="1160"/>
      <point x="318" y="985"/>
      <point x="318" y="835" type="curve"/>
      <point x="362" y="884"/>
      <point x="448" y="908"/>
      <point x="510" y="908" type="curve" smooth="yes"/>
      <point x="754" y="908"/>
      <point x="950" y="796"/>
      <point x="950" y="444" type="curve" smooth="yes"/>
      <point x="950" y="186"/>
      <point x="754" y="0"/>
      <point x="510" y="0" type="curve" smooth="yes"/>
      <point x="260" y="0"/>
      <point x="60" y="210"/>
    </contour>
    <contour>
      <point x="314" y="444" type="curve" smooth="yes"/>
      <point x="314" y="318"/>
      <point x="404.11" y="240"/>
      <point x="510" y="240" type="curve" smooth="yes"/>
      <point x="614" y="240"/>
      <point x="692" y="294"/>
      <point x="692" y="444" type="curve" smooth="yes"/>
      <point x="692" y="594"/>
      <point x="629" y="680"/>
      <point x="510" y="680" type="curve" smooth="yes"/>
      <point x="387" y="680"/>
      <point x="314" y="618"/>
    </contour>
  </outline>
</glyph>
<glyph name="eight" format="2">
  <advance width="1032"/>
  <unicode hex="0038"/>
  <outline>
    <contour>
      <point x="203.954" y="764.113" type="curve"/>
      <point x="-62.306" y="530.763"/>
      <point x="41.093" y="0"/>
      <point x="517" y="0" type="curve" smooth="yes"/>
      <point x="991.346" y="0"/>
      <point x="1094.402" y="530.762"/>
      <point x="829.018" y="764.112" type="curve"/>
      <point x="1095.085" y="964.054"/>
      <point x="990.128" y="1420"/>
      <point x="517" y="1420" type="curve" smooth="yes"/>
      <point x="42.311" y="1420"/>
      <point x="-62.989" y="964.056"/>
    </contour>
    <contour>
      <point x="517" y="236" type="curve" smooth="yes"/>
      <point x="221" y="236"/>
      <point x="221" y="672"/>
      <point x="517" y="672" type="curve" smooth="yes"/>
      <point x="811" y="672"/>
      <point x="811" y="236"/>
    </contour>
    <contour>
      <point x="517" y="872" type="curve" smooth="yes"/>
      <point x="221" y="872"/>
      <point x="297" y="1216"/>
      <point x="517" y="1216" type="curve" smooth="yes"/>
      <point x="735" y="1216"/>
      <point x="811" y="872"/>
    </contour>
  </outline>
</glyph>
<glyph name="nine" format="2">
  <advance width="1010"/>
  <unicode hex="0039"/>
  <outline>
    <contour>
      <point x="60" y="906" type="curve" smooth="yes"/>
      <point x="60" y="672"/>
      <point x="212" y="456"/>
      <point x="500" y="456" type="curve" smooth="yes"/>
      <point x="572.768" y="456"/>
      <point x="638" y="470"/>
      <point x="693" y="494" type="curve"/>
      <point x="693" y="344"/>
      <point x="604" y="240"/>
      <point x="500" y="240" type="curve" smooth="yes"/>
      <point x="388" y="240"/>
      <point x="350" y="302"/>
      <point x="350" y="372" type="curve"/>
      <point x="90" y="372" type="line"/>
      <point x="90" y="138"/>
      <point x="188" y="0"/>
      <point x="500" y="0" type="curve" smooth="yes"/>
      <point x="744" y="0"/>
      <point x="950" y="138"/>
      <point x="950" y="494" type="curve" smooth="yes"/>
      <point x="950" y="906" type="line"/>
      <point x="942" y="1258"/>
      <point x="744" y="1400"/>
      <point x="500" y="1400" type="curve" smooth="yes"/>
      <point x="188" y="1400"/>
      <point x="60" y="1140"/>
    </contour>
    <contour>
      <point x="318" y="906" type="curve" smooth="yes"/>
      <point x="318" y="976"/>
      <point x="346" y="1160"/>
      <point x="500" y="1160" type="curve" smooth="yes"/>
      <point x="604" y="1160"/>
      <point x="693" y="1056"/>
      <point x="693" y="906" type="curve" smooth="yes"/>
      <point x="693" y="756"/>
      <point x="612" y="696"/>
      <point x="500" y="696" type="curve" smooth="yes"/>
      <point x="388" y="696"/>
      <point x="318" y="756"/>
    </contour>
  </outline>
</glyph>
<glyph name="colon" format="2">
  <advance width="384"/>
  <unicode hex="003A"/>
  <outline>
    <contour>
      <point x="194" y="0" type="curve" smooth="yes"/>
      <point x="266" y="0"/>
      <point x="324" y="58"/>
      <point x="324" y="130" type="curve" smooth="yes"/>
      <point x="324" y="202"/>
      <point x="266" y="260"/>
      <point x="194" y="260" type="curve" smooth="yes"/>
      <point x="122" y="260"/>
      <point x="64" y="202"/>
      <point x="64" y="130" type="curve" smooth="yes"/>
      <point x="64" y="58"/>
      <point x="122" y="0"/>
    </contour>
    <contour>
      <point x="190" y="740" type="curve" smooth="yes"/>
      <point x="262" y="740"/>
      <point x="320" y="798"/>
      <point x="320" y="870" type="curve" smooth="yes"/>
      <point x="320" y="942"/>
      <point x="262" y="1000"/>
      <point x="190" y="1000" type="curve" smooth="yes"/>
      <point x="118" y="1000"/>
      <point x="60" y="942"/>
      <point x="60" y="870" type="curve" smooth="yes"/>
      <point x="60" y="798"/>
      <point x="118" y="740"/>
    </contour>
  </outline>
</glyph>
<glyph name="semicolon" format="2">
  <advance width="520"/>
  <unicode hex="003B"/>
  <outline>
    <contour>
      <point x="330" y="0" type="curve" smooth="yes"/>
      <point x="402" y="0"/>
      <point x="460" y="58"/>
      <point x="460" y="130" type="curve" smooth="yes"/>
      <point x="460" y="202"/>
      <point x="402" y="260"/>
      <point x="330" y="260" type="curve" smooth="yes"/>
      <point x="258" y="260"/>
      <point x="200" y="202"/>
      <point x="200" y="130" type="curve" smooth="yes"/>
      <point x="200" y="58"/>
      <point x="258" y="0"/>
    </contour>
    <contour>
      <point x="200" y="130" type="curve"/>
      <point x="210" y="94"/>
      <point x="158" y="-174"/>
      <point x="0" y="-174" type="curve"/>
      <point x="54" y="-400" type="line"/>
      <point x="288" y="-400"/>
      <point x="356" y="-190"/>
      <point x="460" y="130" type="curve"/>
      <point x="374" y="130"/>
      <point x="286" y="130"/>
    </contour>
    <contour>
      <point x="330" y="740" type="curve" smooth="yes"/>
      <point x="402" y="740"/>
      <point x="460" y="798"/>
      <point x="460" y="870" type="curve" smooth="yes"/>
      <point x="460" y="942"/>
      <point x="402" y="1000"/>
      <point x="330" y="1000" type="curve" smooth="yes"/>
      <point x="258" y="1000"/>
      <point x="200" y="942"/>
      <point x="200" y="870" type="curve" smooth="yes"/>
      <point x="200" y="798"/>
      <point x="258" y="740"/>
    </contour>
  </outline>
</glyph>
<glyph name="less" format="2">
  <advance width="1200"/>
  <unicode hex="003C"/>
  <outline>
    <contour>
      <point x="100" y="377" type="line"/>
      <point x="1100" y="0" type="line"/>
      <point x="1100" y="260" type="line"/>
      <point x="408" y="505" type="line"/>
      <point x="1100" y="740" type="line"/>
      <point x="1100" y="1000" type="line"/>
      <point x="100" y="637" type="line"/>
    </contour>
  </outline>
</glyph>
<glyph name="equal" format="2">
  <advance width="1174"/>
  <unicode hex="003D"/>
  <outline>
    <contour>
      <point x="100" y="145" type="line"/>
      <point x="1074" y="145" type="line"/>
      <point x="1074" y="405" type="line"/>
      <point x="100" y="405" type="line"/>
    </contour>
    <contour>
      <point x="100" y="569" type="line"/>
      <point x="1074" y="569" type="line"/>
      <point x="1074" y="829" type="line"/>
      <point x="100" y="829" type="line"/>
    </contour>
  </outline>
</glyph>
<glyph name="question" format="2">
  <advance width="880"/>
  <unicode hex="003F"/>
  <outline>
    <contour>
      <point x="60" y="1278" type="line"/>
      <point x="142" y="1352"/>
      <point x="254" y="1400"/>
      <point x="374" y="1400" type="curve" smooth="yes"/>
      <point x="618" y="1400"/>
      <point x="820" y="1220"/>
      <point x="820" y="986" type="curve" smooth="yes"/>
      <point x="820" y="722"/>
      <point x="664" y="574"/>
      <point x="374" y="574" type="curve"/>
      <point x="374" y="824" type="line"/>
      <point x="478" y="824"/>
      <point x="562" y="910"/>
      <point x="562" y="986" type="curve" smooth="yes"/>
      <point x="562" y="1056"/>
      <point x="506" y="1160"/>
      <point x="374" y="1160" type="curve" smooth="yes"/>
      <point x="312" y="1160"/>
      <point x="264" y="1138"/>
      <point x="232" y="1106" type="curve"/>
    </contour>
    <contour>
      <point x="244" y="130" type="curve" smooth="yes"/>
      <point x="244" y="202"/>
      <point x="302" y="260"/>
      <point x="374" y="260" type="curve" smooth="yes"/>
      <point x="446" y="260"/>
      <point x="504" y="202"/>
      <point x="504" y="130" type="curve" smooth="yes"/>
      <point x="504" y="58"/>
      <point x="446" y="0"/>
      <point x="374" y="0" type="curve" smooth="yes"/>
      <point x="302" y="0"/>
      <point x="244" y="58"/>
    </contour>
    <contour>
      <point x="244" y="380" type="line"/>
      <point x="244" y="824" type="line"/>
      <point x="504" y="824" type="line"/>
      <point x="504" y="380" type="line"/>
    </contour>
  </outline>
</glyph>
<glyph name="at" format="2">
  <advance width="1662"/>
  <unicode hex="0040"/>
  <outline>
    <contour>
      <point x="933" y="1327" type="curve" smooth="yes"/>
      <point x="767" y="1327"/>
      <point x="34" y="1194"/>
      <point x="61" y="196" type="curve"/>
      <point x="300" y="250" type="line"/>
      <point x="257" y="990"/>
      <point x="759" y="1078"/>
      <point x="885" y="1078" type="curve" smooth="yes"/>
      <point x="1236" y="1078"/>
      <point x="1362" y="936"/>
      <point x="1362" y="565" type="curve" smooth="yes"/>
      <point x="1362" y="244"/>
      <point x="1352" y="59"/>
      <point x="1297" y="59" type="curve" smooth="yes"/>
      <point x="1236" y="59"/>
      <point x="1217" y="114"/>
      <point x="1217" y="220" type="curve" smooth="yes"/>
      <point x="1217" y="808" type="line"/>
      <point x="1067" y="931"/>
      <point x="960" y="936"/>
      <point x="871" y="936" type="curve" smooth="yes"/>
      <point x="637" y="936"/>
      <point x="410" y="723"/>
      <point x="410" y="370" type="curve" smooth="yes"/>
      <point x="410" y="103"/>
      <point x="572" y="-132"/>
      <point x="784" y="-132" type="curve" smooth="yes"/>
      <point x="949" y="-132"/>
      <point x="1050" y="18"/>
      <point x="1085" y="108" type="curve"/>
      <point x="1093" y="108" type="line"/>
      <point x="1085" y="25"/>
      <point x="1063" y="-179"/>
      <point x="1297" y="-179" type="curve" smooth="yes"/>
      <point x="1533" y="-179"/>
      <point x="1602" y="61"/>
      <point x="1602" y="563" type="curve" smooth="yes"/>
      <point x="1602" y="1125"/>
      <point x="1290" y="1327"/>
    </contour>
    <contour>
      <point x="883" y="747" type="curve" smooth="yes"/>
      <point x="936" y="747"/>
      <point x="1026" y="705"/>
      <point x="1026" y="603" type="curve"/>
      <point x="1026" y="370" type="line"/>
      <point x="1026" y="265"/>
      <point x="949" y="118"/>
      <point x="818" y="118" type="curve" smooth="yes"/>
      <point x="746" y="118"/>
      <point x="664" y="196"/>
      <point x="664" y="396" type="curve" smooth="yes"/>
      <point x="664" y="654"/>
      <point x="746" y="747"/>
    </contour>
  </outline>
</glyph>
<glyph name="A" format="2">
  <advance width="960"/>
  <unicode hex="0041"/>
  <outline>
    <contour>
      <point x="350" y="1400" type="line"/>
      <point x="60" y="0" type="line"/>
      <point x="320" y="0" type="line"/>
      <point x="610" y="1400" type="line"/>
    </contour>
    <contour>
      <point x="756" y="348" type="line"/>
      <point x="204" y="348" type="line"/>
      <point x="206" y="156" type="line"/>
      <point x="758" y="156" type="line"/>
    </contour>
    <contour>
      <point x="610" y="1400" type="line"/>
      <point x="350" y="1400" type="line"/>
      <point x="640" y="0" type="line"/>
      <point x="900" y="0" type="line"/>
    </contour>
  </outline>
</glyph>
<glyph name="B" format="2">
  <advance width="1000"/>
  <unicode hex="0042"/>
  <outline>
    <contour>
      <point x="60" y="1400" type="line"/>
      <point x="60" y="0" type="line"/>
      <point x="320" y="0" type="line"/>
      <point x="320" y="1400" type="line"/>
    </contour>
    <contour>
      <point x="198" y="560" type="line"/>
      <point x="570" y="560" type="line"/>
      <point x="570" y="820" type="line"/>
      <point x="198" y="820" type="line"/>
    </contour>
    <contour>
      <point x="198" y="1140" type="line"/>
      <point x="570" y="1140" type="line"/>
      <point x="570" y="1400" type="line"/>
      <point x="198" y="1400" type="line"/>
    </contour>
    <contour>
      <point x="570" y="820" type="curve"/>
      <point x="570" y="560" type="line"/>
      <point x="1012" y="560"/>
      <point x="1010" y="1400"/>
      <point x="570" y="1400" type="curve"/>
      <point x="570" y="1140" type="line"/>
      <point x="700" y="1140"/>
      <point x="700" y="820"/>
    </contour>
    <contour>
      <point x="570" y="258" type="curve"/>
      <point x="612" y="0" type="line"/>
      <point x="1050" y="0"/>
      <point x="1048" y="820"/>
      <point x="612" y="820" type="curve"/>
      <point x="570" y="560" type="line"/>
      <point x="700" y="560"/>
      <point x="700" y="258"/>
    </contour>
    <contour>
      <point x="262" y="0" type="line"/>
      <point x="612" y="0" type="line"/>
      <point x="570" y="258" type="line"/>
      <point x="262" y="260" type="line"/>
    </contour>
  </outline>
</glyph>
<glyph name="D" format="2">
  <advance width="1125"/>
  <unicode hex="0044"/>
  <outline>
    <contour>
      <point x="60" y="1400" type="line"/>
      <point x="60" y="0" type="line"/>
      <point x="320" y="0" type="line"/>
      <point x="320" y="1400" type="line"/>
    </contour>
    <contour>
      <point x="512" y="260" type="line"/>
      <point x="108" y="260" type="line"/>
      <point x="108" y="0" type="line"/>
      <point x="512" y="0" type="line"/>
    </contour>
    <contour>
      <point x="512" y="1400" type="line"/>
      <point x="108" y="1400" type="line"/>
      <point x="108" y="1140" type="line"/>
      <point x="512" y="1140" type="line"/>
    </contour>
    <contour>
      <point x="512" y="0" type="move"/>
    </contour>
    <contour>
      <point x="512" y="260" type="curve"/>
      <point x="512" y="0" type="line"/>
      <point x="1250" y="0"/>
      <point x="1248" y="1400"/>
      <point x="512" y="1400" type="curve"/>
      <point x="512" y="1140" type="line"/>
      <point x="870" y="1142"/>
      <point x="870" y="260"/>
    </contour>
  </outline>
</glyph>
<glyph name="E" format="2">
  <advance width="960"/>
  <unicode hex="0045"/>
  <outline>
    <contour>
      <point x="60" y="1400" type="line"/>
      <point x="60" y="0" type="line"/>
      <point x="320" y="0" type="line"/>
      <point x="320" y="1400" type="line"/>
    </contour>
    <contour>
      <point x="900" y="260" type="line"/>
      <point x="108" y="260" type="line"/>
      <point x="108" y="0" type="line"/>
      <point x="900" y="0" type="line"/>
    </contour>
    <contour>
      <point x="900" y="1400" type="line"/>
      <point x="110" y="1400" type="line"/>
      <point x="110" y="1140" type="line"/>
      <point x="900" y="1140" type="line"/>
    </contour>
    <contour>
      <point x="320" y="700" type="move"/>
    </contour>
    <contour>
      <point x="900" y="830" type="line"/>
      <point x="110" y="830" type="line"/>
      <point x="110" y="570" type="line"/>
      <point x="900" y="570" type="line"/>
    </contour>
  </outline>
</glyph>
<glyph name="H" format="2">
  <advance width="960"/>
  <unicode hex="0048"/>
  <outline>
    <contour>
      <point x="60" y="1400" type="line"/>
      <point x="60" y="0" type="line"/>
      <point x="320" y="0" type="line"/>
      <point x="320" y="1400" type="line"/>
    </contour>
    <contour>
      <point x="640" y="1400" type="line"/>
      <point x="640" y="0" type="line"/>
      <point x="900" y="0" type="line"/>
      <point x="900" y="1400" type="line"/>
    </contour>
    <contour>
      <point x="64" y="1000" type="line"/>
      <point x="64" y="740" type="line"/>
      <point x="894" y="740" type="line"/>
      <point x="894" y="1000" type="line"/>
    </contour>
  </outline>
</glyph>
<glyph name="K" format="2">
  <advance width="960"/>
  <unicode hex="004B"/>
  <outline>
    <contour>
      <point x="60" y="1400" type="line"/>
      <point x="60" y="0" type="line"/>
      <point x="320" y="0" type="line"/>
      <point x="320" y="1400" type="line"/>
    </contour>
    <contour>
      <point x="320" y="440" type="line"/>
      <point x="900" y="1400" type="line"/>
      <point x="640" y="1400" type="line"/>
      <point x="320" y="887" type="line"/>
    </contour>
    <contour>
      <point x="458" y="887" type="line"/>
      <point x="314" y="650" type="line"/>
      <point x="640" y="0" type="line"/>
      <point x="900" y="0" type="line"/>
    </contour>
  </outline>
</glyph>
<glyph name="L" format="2">
  <advance width="960"/>
  <unicode hex="004C"/>
  <outline>
    <contour>
      <point x="60" y="1400" type="line"/>
      <point x="60" y="0" type="line"/>
      <point x="320" y="0" type="line"/>
      <point x="320" y="1400" type="line"/>
    </contour>
    <contour>
      <point x="900" y="260" type="line"/>
      <point x="108" y="260" type="line"/>
      <point x="108" y="0" type="line"/>
      <point x="900" y="0" type="line"/>
    </contour>
  </outline>
</glyph>
<glyph name="M" format="2">
  <advance width="1280"/>
  <unicode hex="004D"/>
  <outline>
    <contour>
      <point x="60" y="1400" type="line"/>
      <point x="60" y="0" type="line"/>
      <point x="320" y="0" type="line"/>
      <point x="320" y="1400" type="line"/>
    </contour>
    <contour>
      <point x="960" y="1400" type="line"/>
      <point x="960" y="0" type="line"/>
      <point x="1220" y="0" type="line"/>
      <point x="1220" y="1400" type="line"/>
    </contour>
    <contour>
      <point x="320" y="1400" type="line"/>
      <point x="320" y="956" type="line"/>
      <point x="640" y="560" type="line"/>
      <point x="640" y="1000" type="line"/>
    </contour>
    <contour>
      <point x="960" y="1400" type="line"/>
      <point x="640" y="1000" type="line"/>
      <point x="640" y="560" type="line"/>
      <point x="960" y="956" type="line"/>
    </contour>
  </outline>
</glyph>
<glyph name="O" format="2">
  <advance width="1226"/>
  <unicode hex="004F"/>
  <outline>
    <contour>
      <point x="613" y="0" type="move"/>
    </contour>
    <contour>
      <point x="613" y="260" type="curve"/>
      <point x="613" y="0" type="line"/>
      <point x="1351" y="0"/>
      <point x="1349" y="1400"/>
      <point x="613" y="1400" type="curve"/>
      <point x="613" y="1140" type="line"/>
      <point x="971" y="1142"/>
      <point x="971" y="260"/>
    </contour>
    <contour>
      <point x="613" y="0" type="move"/>
    </contour>
    <contour>
      <point x="613" y="260" type="line"/>
      <point x="255" y="260"/>
      <point x="255" y="1142"/>
      <point x="613" y="1140" type="curve"/>
      <point x="613" y="1400" type="line"/>
      <point x="-123" y="1400"/>
      <point x="-125" y="0"/>
      <point x="613" y="0" type="curve"/>
    </contour>
  </outline>
</glyph>
<glyph name="S" format="2">
  <advance width="1024"/>
  <unicode hex="0053"/>
  <outline>
    <contour>
      <point x="512" y="824" type="line"/>
      <point x="756" y="824"/>
      <point x="958" y="644"/>
      <point x="958" y="414" type="curve" smooth="yes"/>
      <point x="958" y="182"/>
      <point x="756" y="0"/>
      <point x="512" y="0" type="curve" smooth="yes"/>
      <point x="262" y="0"/>
      <point x="60" y="182"/>
      <point x="60" y="414" type="curve"/>
      <point x="316" y="414" type="line"/>
      <point x="316" y="340"/>
      <point x="406" y="238"/>
      <point x="512" y="238" type="curve" smooth="yes"/>
      <point x="647" y="238"/>
      <point x="700" y="340"/>
      <point x="700" y="414" type="curve" smooth="yes"/>
      <point x="700" y="484"/>
      <point x="647" y="576"/>
      <point x="512" y="574" type="curve"/>
    </contour>
    <contour>
      <point x="512" y="574" type="line"/>
      <point x="268" y="574"/>
      <point x="66" y="756"/>
      <point x="66" y="986" type="curve" smooth="yes"/>
      <point x="66" y="1220"/>
      <point x="268" y="1400"/>
      <point x="512" y="1400" type="curve" smooth="yes"/>
      <point x="762" y="1400"/>
      <point x="964" y="1220"/>
      <point x="964" y="986" type="curve"/>
      <point x="708" y="986" type="line"/>
      <point x="708" y="1056"/>
      <point x="618" y="1160"/>
      <point x="512" y="1160" type="curve" smooth="yes"/>
      <point x="377" y="1160"/>
      <point x="324" y="1056"/>
      <point x="324" y="986" type="curve" smooth="yes"/>
      <point x="324" y="910"/>
      <point x="377" y="824"/>
      <point x="512" y="824" type="curve"/>
    </contour>
  </outline>
</glyph>
<glyph name="X" format="2">
  <advance width="974"/>
  <unicode hex="0058"/>
  <outline>
    <contour>
      <point x="62" y="1400" type="line"/>
      <point x="652" y="0" type="line"/>
      <point x="914" y="0" type="line"/>
      <point x="300" y="1400" type="line"/>
    </contour>
    <contour>
      <point x="652" y="1260" type="line"/>
      <point x="60" y="0" type="line"/>
      <point x="320" y="0" type="line"/>
      <point x="914" y="1260" type="line"/>
    </contour>
    <contour>
      <point x="652" y="1400" type="line"/>
      <point x="652" y="1260" type="line"/>
      <point x="914" y="1260" type="line"/>
      <point x="914" y="1400" type="line"/>
    </contour>
  </outline>
</glyph>
<glyph name="Y" format="2">
  <advance width="960"/>
  <unicode hex="0059"/>
  <outline>
    <contour>
      <point x="350" y="572" type="line"/>
      <point x="610" y="572" type="line"/>
      <point x="320" y="1400" type="line"/>
      <point x="60" y="1400" type="line"/>
    </contour>
    <contour>
      <point x="610" y="572" type="line"/>
      <point x="900" y="1400" type="line"/>
      <point x="640" y="1400" type="line"/>
      <point x="350" y="572" type="line"/>
    </contour>
    <contour>
      <point x="350" y="572" type="line"/>
      <point x="350" y="0" type="line"/>
      <point x="610" y="0" type="line"/>
      <point x="610" y="572" type="line"/>
    </contour>
  </outline>
</glyph>
<glyph name="c" format="2">
  <advance width="958"/>
  <unicode hex="0063"/>
  <outline>
    <contour>
      <point x="60" y="420" type="line"/>
      <point x="320" y="420" type="line"/>
      <point x="320" y="580" type="line"/>
      <point x="60" y="580" type="line"/>
    </contour>
    <contour>
      <point x="318" y="56" type="move"/>
    </contour>
    <contour>
      <point x="318" y="56" type="move"/>
    </contour>
    <contour>
      <point x="318" y="56" type="move"/>
    </contour>
    <contour>
      <point x="448" y="256" type="curve"/>
      <point x="468" y="0" type="line"/>
      <point x="668" y="0"/>
      <point x="898" y="66"/>
      <point x="898" y="354" type="curve"/>
      <point x="638" y="354" type="line"/>
      <point x="638" y="256"/>
      <point x="574" y="256"/>
    </contour>
    <contour>
      <point x="448" y="256" type="line"/>
      <point x="352" y="256"/>
      <point x="320" y="314"/>
      <point x="320" y="420" type="curve"/>
      <point x="60" y="420" type="line"/>
      <point x="60" y="170"/>
      <point x="248" y="0"/>
      <point x="468" y="0" type="curve"/>
    </contour>
    <contour>
      <point x="448" y="744" type="line"/>
      <point x="574" y="744"/>
      <point x="638" y="744"/>
      <point x="638" y="646" type="curve"/>
      <point x="898" y="646" type="line"/>
      <point x="898" y="914"/>
      <point x="668" y="1000"/>
      <point x="468" y="1000" type="curve"/>
    </contour>
    <contour>
      <point x="448" y="744" type="curve"/>
      <point x="468" y="1000" type="line"/>
      <point x="248" y="1000"/>
      <point x="60" y="830"/>
      <point x="60" y="580" type="curve"/>
      <point x="320" y="580" type="line"/>
      <point x="320" y="686"/>
      <point x="352" y="744"/>
    </contour>
  </outline>
</glyph>
<glyph name="d" format="2">
  <advance width="958"/>
  <unicode hex="0064"/>
  <outline>
    <contour>
      <point x="638" y="56" type="move"/>
    </contour>
    <contour>
      <point x="638" y="56" type="move"/>
    </contour>
    <contour>
      <point x="60" y="420" type="line" smooth="yes"/>
      <point x="60" y="80"/>
      <point x="288" y="0"/>
      <point x="488" y="0" type="curve" smooth="yes"/>
      <point x="548.897" y="0"/>
      <point x="599.067" y="19.615"/>
      <point x="639.782" y="51.464" type="curve"/>
      <point x="660" y="0" type="line"/>
      <point x="898" y="0" type="line"/>
      <point x="898" y="1400" type="line"/>
      <point x="638" y="1400" type="line"/>
      <point x="638" y="949.918" type="line"/>
      <point x="597.605" y="980.952"/>
      <point x="548.011" y="1000"/>
      <point x="488" y="1000" type="curve" smooth="yes"/>
      <point x="288" y="1000"/>
      <point x="60" y="920"/>
      <point x="60" y="580" type="curve" smooth="yes"/>
    </contour>
    <contour>
      <point x="320" y="420" type="curve" smooth="yes"/>
      <point x="320" y="580" type="line" smooth="yes"/>
      <point x="320" y="728"/>
      <point x="382" y="744"/>
      <point x="508" y="744" type="curve" smooth="yes"/>
      <point x="604" y="744"/>
      <point x="638" y="686"/>
      <point x="638" y="580" type="curve" smooth="yes"/>
      <point x="638" y="420" type="line" smooth="yes"/>
      <point x="638" y="314"/>
      <point x="604" y="256"/>
      <point x="508" y="256" type="curve" smooth="yes"/>
      <point x="382" y="256"/>
      <point x="320" y="272"/>
    </contour>
  </outline>
</glyph>
<glyph name="f" format="2">
  <advance width="736"/>
  <unicode hex="0066"/>
  <outline>
    <contour>
      <point x="194" y="0" type="line"/>
      <point x="454" y="0" type="line"/>
      <point x="454" y="1352" type="line"/>
      <point x="194" y="970" type="line"/>
    </contour>
    <contour>
      <point x="582" y="742" type="line"/>
      <point x="582" y="1000" type="line"/>
      <point x="60" y="1002" type="line"/>
      <point x="60" y="744" type="line"/>
    </contour>
    <contour>
      <point x="454" y="950" type="line"/>
      <point x="454" y="1076"/>
      <point x="528" y="1138"/>
      <point x="676" y="1138" type="curve"/>
      <point x="676" y="1400" type="line"/>
      <point x="336" y="1400"/>
      <point x="194" y="1170"/>
      <point x="194" y="970" type="curve"/>
    </contour>
  </outline>
</glyph>
<glyph name="i" format="2">
  <advance width="400"/>
  <unicode hex="0069"/>
  <outline>
    <contour>
      <point x="70" y="1000" type="line"/>
      <point x="70" y="0" type="line"/>
      <point x="330" y="0" type="line"/>
      <point x="330" y="1000" type="line"/>
    </contour>
    <contour>
      <point x="200" y="1070" type="curve" smooth="yes"/>
      <point x="270" y="1070"/>
      <point x="330" y="1128"/>
      <point x="330" y="1200" type="curve" smooth="yes"/>
      <point x="330" y="1272"/>
      <point x="270" y="1330"/>
      <point x="200" y="1330" type="curve" smooth="yes"/>
      <point x="128" y="1330"/>
      <point x="70" y="1272"/>
      <point x="70" y="1200" type="curve" smooth="yes"/>
      <point x="70" y="1128"/>
      <point x="128" y="1070"/>
    </contour>
  </outline>
</glyph>
<glyph name="k" format="2">
  <advance width="946"/>
  <unicode hex="006B"/>
  <outline>
    <contour>
      <point x="60" y="1400" type="line"/>
      <point x="60" y="0" type="line"/>
      <point x="320" y="0" type="line"/>
      <point x="320" y="1400" type="line"/>
    </contour>
    <contour>
      <point x="320" y="420" type="line"/>
      <point x="886" y="1000" type="line"/>
      <point x="626" y="1000" type="line"/>
      <point x="320" y="697" type="line"/>
    </contour>
    <contour>
      <point x="463" y="580" type="line"/>
      <point x="320" y="420" type="line"/>
      <point x="626" y="0" type="line"/>
      <point x="886" y="0" type="line"/>
    </contour>
  </outline>
</glyph>
<glyph name="l" format="2">
  <advance width="550"/>
  <unicode hex="006C"/>
  <outline>
    <contour>
      <point x="60" y="1370" type="line"/>
      <point x="60" y="430" type="line"/>
      <point x="320" y="48" type="line"/>
      <point x="320" y="1400" type="line"/>
    </contour>
    <contour>
      <point x="320" y="450" type="curve"/>
      <point x="60" y="430" type="line"/>
      <point x="60" y="230"/>
      <point x="150" y="0"/>
      <point x="490" y="0" type="curve"/>
      <point x="490" y="260" type="line"/>
      <point x="342" y="260"/>
      <point x="320" y="324"/>
    </contour>
  </outline>
</glyph>
<glyph name="m" format="2">
  <advance width="1540"/>
  <unicode hex="006D"/>
  <outline>
    <contour>
      <point x="60" y="0" type="line"/>
      <point x="320" y="0" type="line"/>
      <point x="320" y="580" type="line" smooth="yes"/>
      <point x="320" y="686"/>
      <point x="354" y="744"/>
      <point x="450" y="744" type="curve" smooth="yes"/>
      <point x="576" y="744"/>
      <point x="640" y="728"/>
      <point x="640" y="580" type="curve" smooth="yes"/>
      <point x="640" y="0" type="line"/>
      <point x="900" y="0" type="line"/>
      <point x="900" y="580" type="line" smooth="yes"/>
      <point x="900" y="686"/>
      <point x="934" y="744"/>
      <point x="1030" y="744" type="curve" smooth="yes"/>
      <point x="1156" y="744"/>
      <point x="1220" y="728"/>
      <point x="1220" y="580" type="curve" smooth="yes"/>
      <point x="1220" y="0" type="line"/>
      <point x="1480" y="0" type="line"/>
      <point x="1480" y="580" type="line" smooth="yes"/>
      <point x="1480" y="920"/>
      <point x="1250" y="1000"/>
      <point x="1050" y="1000" type="curve" smooth="yes"/>
      <point x="942" y="1000"/>
      <point x="868" y="960"/>
      <point x="820" y="891" type="curve"/>
      <point x="736" y="1000"/>
      <point x="597.697" y="1000"/>
      <point x="470" y="1000" type="curve" smooth="yes"/>
      <point x="407" y="1000"/>
      <point x="356" y="987"/>
      <point x="320" y="960" type="curve"/>
      <point x="298" y="1000" type="line"/>
      <point x="60" y="1000" type="line"/>
    </contour>
  </outline>
</glyph>
<glyph name="p" format="2">
  <advance width="958"/>
  <unicode hex="0070"/>
  <outline>
    <contour>
      <point x="60" y="-400" type="line"/>
      <point x="320" y="-400" type="line"/>
      <point x="320" y="50.082" type="line"/>
      <point x="360.395" y="19.048"/>
      <point x="409.989" y="0"/>
      <point x="470" y="0" type="curve" smooth="yes"/>
      <point x="670" y="0"/>
      <point x="898" y="80"/>
      <point x="898" y="420" type="curve" smooth="yes"/>
      <point x="898" y="580" type="line" smooth="yes"/>
      <point x="898" y="920"/>
      <point x="670" y="1000"/>
      <point x="470" y="1000" type="curve" smooth="yes"/>
      <point x="409.103" y="1000"/>
      <point x="358.933" y="980.385"/>
      <point x="318.218" y="948.536" type="curve"/>
      <point x="298" y="1000" type="line"/>
      <point x="60" y="1000" type="line"/>
    </contour>
    <contour>
      <point x="320" y="420" type="curve"/>
      <point x="320" y="580" type="line"/>
      <point x="320" y="686"/>
      <point x="354" y="744"/>
      <point x="450" y="744" type="curve" smooth="yes"/>
      <point x="576" y="744"/>
      <point x="638" y="728"/>
      <point x="638" y="580" type="curve" smooth="yes"/>
      <point x="638" y="420" type="line" smooth="yes"/>
      <point x="638" y="272"/>
      <point x="576" y="256"/>
      <point x="450" y="256" type="curve" smooth="yes"/>
      <point x="354" y="256"/>
      <point x="320" y="314"/>
    </contour>
  </outline>
</glyph>
<glyph name="q" format="2">
  <advance width="960"/>
  <unicode hex="0071"/>
  <outline>
    <contour>
      <point x="60" y="420" type="line" smooth="yes"/>
      <point x="60" y="80"/>
      <point x="290" y="0"/>
      <point x="490" y="0" type="curve" smooth="yes"/>
      <point x="550.011" y="0"/>
      <point x="599.605" y="12.649"/>
      <point x="640" y="36.121" type="curve"/>
      <point x="640" y="-400" type="line"/>
      <point x="900" y="-400" type="line"/>
      <point x="900" y="1000" type="line"/>
      <point x="662" y="1000" type="line"/>
      <point x="646.315" y="960.075" type="line"/>
      <point x="604.808" y="985.981"/>
      <point x="553.176" y="1000"/>
      <point x="490" y="1000" type="curve" smooth="yes"/>
      <point x="290" y="1000"/>
      <point x="60" y="920"/>
      <point x="60" y="580" type="curve" smooth="yes"/>
    </contour>
    <contour>
      <point x="322" y="420" type="curve" smooth="yes"/>
      <point x="322" y="580" type="line" smooth="yes"/>
      <point x="322" y="728"/>
      <point x="384" y="744"/>
      <point x="510" y="744" type="curve" smooth="yes"/>
      <point x="606" y="744"/>
      <point x="640" y="686"/>
      <point x="640" y="580" type="curve" smooth="yes"/>
      <point x="640" y="420" type="line" smooth="yes"/>
      <point x="640" y="314"/>
      <point x="606" y="256"/>
      <point x="510" y="256" type="curve" smooth="yes"/>
      <point x="384" y="256"/>
      <point x="322" y="272"/>
    </contour>
  </outline>
</glyph>
<glyph name="t" format="2">
  <advance width="920"/>
  <unicode hex="0074"/>
  <outline>
    <contour>
      <point x="330" y="1370" type="line"/>
      <point x="330" y="430" type="line"/>
      <point x="590" y="48" type="line"/>
      <point x="590" y="1400" type="line"/>
    </contour>
    <contour>
      <point x="860" y="1000" type="line"/>
      <point x="60" y="1000" type="line"/>
      <point x="60" y="740" type="line"/>
      <point x="860" y="740" type="line"/>
    </contour>
    <contour>
      <point x="590" y="450" type="curve"/>
      <point x="330" y="430" type="line"/>
      <point x="330" y="230"/>
      <point x="420" y="0"/>
      <point x="760" y="0" type="curve"/>
      <point x="760" y="260" type="line"/>
      <point x="612" y="260"/>
      <point x="590" y="324"/>
    </contour>
  </outline>
</glyph>
<glyph name="w" format="2">
  <advance width="1596"/>
  <unicode hex="0077"/>
  <outline>
    <contour>
      <point x="1226" y="0" type="move"/>
    </contour>
    <contour>
      <point x="60" y="1000" type="line"/>
      <point x="351" y="0" type="line"/>
      <point x="611" y="0" type="line"/>
      <point x="801" y="544" type="line"/>
      <point x="966" y="0" type="line"/>
      <point x="1226" y="0" type="line"/>
      <point x="1536" y="900" type="line"/>
      <point x="1536" y="1000" type="line"/>
      <point x="1276" y="1000" type="line"/>
      <point x="1276" y="900" type="line"/>
      <point x="1104" y="404" type="line"/>
      <point x="923" y="1000" type="line"/>
      <point x="663" y="1000" type="line"/>
      <point x="663" y="900" type="line"/>
      <point x="493" y="404" type="line"/>
      <point x="320" y="1000" type="line"/>
    </contour>
  </outline>
</glyph>
<glyph name="x" format="2">
  <advance width="973"/>
  <unicode hex="0078"/>
  <outline>
    <contour>
      <point x="60" y="1000" type="line"/>
      <point x="653" y="0" type="line"/>
      <point x="913" y="0" type="line"/>
      <point x="320" y="1000" type="line"/>
    </contour>
    <contour>
      <point x="653" y="900" type="line"/>
      <point x="60" y="0" type="line"/>
      <point x="320" y="0" type="line"/>
      <point x="913" y="900" type="line"/>
    </contour>
    <contour>
      <point x="653" y="1000" type="line"/>
      <point x="653" y="900" type="line"/>
      <point x="913" y="900" type="line"/>
      <point x="913" y="1000" type="line"/>
    </contour>
  </outline>
</glyph>
<glyph name="y" format="2">
  <advance width="981"/>
  <unicode hex="0079"/>
  <outline>
    <contour>
      <point x="60" y="1000" type="line"/>
      <point x="351" y="0" type="line" smooth="yes"/>
      <point x="361" y="-36"/>
      <point x="309" y="-170"/>
      <point x="151" y="-170" type="curve"/>
      <point x="151" y="-400" type="line"/>
      <point x="385" y="-400"/>
      <point x="507" y="-320"/>
      <point x="611" y="0" type="curve" smooth="yes"/>
      <point x="921" y="900" type="line"/>
      <point x="921" y="1000" type="line"/>
      <point x="661" y="1000" type="line"/>
      <point x="661" y="900" type="line"/>
      <point x="491.934" y="409.162" type="line"/>
      <point x="320" y="1000" type="line"/>
    </contour>
  </outline>
</glyph>
<glyph name="z" format="2">
  <advance width="975"/>
  <unicode hex="007A"/>
  <outline>
    <contour>
      <point x="915" y="0" type="move"/>
    </contour>
    <contour>
      <point x="553" y="760" type="line"/>
      <point x="62" y="240" type="line"/>
      <point x="62" y="0" type="line"/>
      <point x="915" y="0" type="line"/>
      <point x="915" y="240" type="line"/>
      <point x="413" y="240" type="line"/>
      <point x="915" y="760" type="line"/>
      <point x="915" y="1000" type="line"/>
      <point x="62" y="1000" type="line"/>
      <point x="62" y="760" type="line"/>
    </contour>
  </outline>
</glyph>
<glyph name="asciitilde" format="2">
  <advance width="1174"/>
  <unicode hex="007E"/>
  <outline>
    <contour>
      <point x="100" y="420" type="line"/>
      <point x="425" y="620"/>
      <point x="749" y="229"/>
      <point x="1074" y="420" type="curve"/>
      <point x="1074" y="680" type="line"/>
      <point x="749" y="489"/>
      <point x="425" y="880"/>
      <point x="100" y="680" type="curve"/>
    </contour>
  </outline>
</glyph>
<glyph name="exclamdown" format="2">
  <advance width="380"/>
  <unicode hex="00A1"/>
  <outline>
    <contour>
      <point x="190" y="1200" type="curve" smooth="yes"/>
      <point x="118" y="1200"/>
      <point x="60" y="1142"/>
      <point x="60" y="1070" type="curve" smooth="yes"/>
      <point x="60" y="998"/>
      <point x="118" y="940"/>
      <point x="190" y="940" type="curve" smooth="yes"/>
      <point x="262" y="940"/>
      <point x="320" y="998"/>
      <point x="320" y="1070" type="curve" smooth="yes"/>
      <point x="320" y="1142"/>
      <point x="262" y="1200"/>
    </contour>
    <contour>
      <point x="60" y="820" type="line"/>
      <point x="60" y="-170" type="line"/>
      <point x="320" y="-200" type="line"/>
      <point x="320" y="820" type="line"/>
    </contour>
  </outline>
</glyph>
<glyph name="cent" format="2">
  <advance width="1259"/>
  <unicode hex="00A2"/>
  <outline>
    <contour>
      <point x="523" y="1400" type="line"/>
      <point x="523" y="0" type="line"/>
      <point x="783" y="0" type="line"/>
      <point x="783" y="1400" type="line"/>
    </contour>
    <contour>
      <point x="653" y="126" type="curve" smooth="yes"/>
      <point x="913" y="126"/>
      <point x="1083" y="272"/>
      <point x="1159" y="463" type="curve"/>
      <point x="905" y="582" type="line"/>
      <point x="873" y="451"/>
      <point x="789" y="344"/>
      <point x="653" y="344" type="curve" smooth="yes"/>
      <point x="295" y="344"/>
      <point x="295" y="1084"/>
      <point x="653" y="1082" type="curve" smooth="yes"/>
      <point x="775" y="1082"/>
      <point x="855" y="996"/>
      <point x="893" y="884" type="curve"/>
      <point x="1141" y="1002" type="line"/>
      <point x="1059" y="1173"/>
      <point x="895" y="1300"/>
      <point x="653" y="1300" type="curve" smooth="yes"/>
      <point x="-83" y="1300"/>
      <point x="-85" y="126"/>
    </contour>
  </outline>
</glyph>
<glyph name="sterling" format="2">
  <advance width="1069"/>
  <unicode hex="00A3"/>
  <outline>
    <contour>
      <point x="100" y="634" type="line"/>
      <point x="269" y="634" type="line"/>
      <point x="269" y="390"/>
      <point x="262" y="354"/>
      <point x="105" y="260" type="curve"/>
      <point x="105" y="0" type="line"/>
      <point x="942" y="0" type="line"/>
      <point x="957" y="260" type="line"/>
      <point x="383" y="260" type="line"/>
      <point x="488" y="319"/>
      <point x="505" y="389"/>
      <point x="505" y="634" type="curve"/>
      <point x="822" y="634" type="line"/>
      <point x="822" y="867" type="line"/>
      <point x="505" y="867" type="line"/>
      <point x="503" y="1129"/>
      <point x="499" y="1171"/>
      <point x="626" y="1171" type="curve" smooth="yes"/>
      <point x="729" y="1171"/>
      <point x="808" y="1134"/>
      <point x="879" y="1051" type="curve"/>
      <point x="969" y="1230" type="line"/>
      <point x="882" y="1347"/>
      <point x="759" y="1400"/>
      <point x="626" y="1400" type="curve" smooth="yes"/>
      <point x="356" y="1400"/>
      <point x="269" y="1249"/>
      <point x="269" y="867" type="curve"/>
      <point x="100" y="867" type="line"/>
    </contour>
  </outline>
</glyph>
<glyph name="yen" format="2">
  <advance width="1324"/>
  <unicode hex="00A5"/>
  <outline>
    <contour>
      <point x="1224" y="1400" type="line"/>
      <point x="964" y="1400" type="line"/>
      <point x="668" y="873" type="line"/>
      <point x="360" y="1400" type="line"/>
      <point x="100" y="1400" type="line"/>
      <point x="488" y="720" type="line"/>
      <point x="306" y="720" type="line"/>
      <point x="306" y="510" type="line"/>
      <point x="528" y="510" type="line"/>
      <point x="528" y="401" type="line"/>
      <point x="306" y="401" type="line"/>
      <point x="306" y="191" type="line"/>
      <point x="528" y="191" type="line"/>
      <point x="528" y="0" type="line"/>
      <point x="788" y="0" type="line"/>
      <point x="788" y="191" type="line"/>
      <point x="1014" y="191" type="line"/>
      <point x="1014" y="401" type="line"/>
      <point x="788" y="401" type="line"/>
      <point x="788" y="510" type="line"/>
      <point x="1014" y="510" type="line"/>
      <point x="1014" y="720" type="line"/>
      <point x="826" y="720" type="line"/>
    </contour>
  </outline>
</glyph>
<glyph name="section" format="2">
  <advance width="1104"/>
  <unicode hex="00A7"/>
  <outline>
    <contour>
      <point x="100" y="144" type="curve"/>
      <point x="356" y="144" type="line"/>
      <point x="356" y="79"/>
      <point x="446" y="-9"/>
      <point x="552" y="-9" type="curve" smooth="yes"/>
      <point x="687" y="-9"/>
      <point x="740" y="79"/>
      <point x="740" y="144" type="curve" smooth="yes"/>
      <point x="740" y="205"/>
      <point x="688" y="284"/>
      <point x="555" y="284" type="curve" smooth="yes"/>
      <point x="552" y="284" type="line" smooth="yes"/>
      <point x="302" y="284"/>
      <point x="100" y="442"/>
      <point x="100" y="645" type="curve"/>
      <point x="100" y="744"/>
      <point x="149" y="833"/>
      <point x="228" y="898" type="curve"/>
      <point x="153" y="962"/>
      <point x="106" y="1049"/>
      <point x="106" y="1145" type="curve" smooth="yes"/>
      <point x="106" y="1350"/>
      <point x="308" y="1507"/>
      <point x="552" y="1507" type="curve" smooth="yes"/>
      <point x="802" y="1507"/>
      <point x="1004" y="1350"/>
      <point x="1004" y="1145" type="curve"/>
      <point x="748" y="1145" type="line"/>
      <point x="748" y="1207"/>
      <point x="658" y="1298"/>
      <point x="552" y="1298" type="curve" smooth="yes"/>
      <point x="417" y="1298"/>
      <point x="364" y="1207"/>
      <point x="364" y="1145" type="curve" smooth="yes"/>
      <point x="364" y="1083"/>
      <point x="419" y="1005"/>
      <point x="552" y="1005" type="curve" smooth="yes"/>
      <point x="802" y="1005"/>
      <point x="913" y="906"/>
      <point x="974" y="763" type="curve" smooth="yes"/>
      <point x="989" y="726"/>
      <point x="998" y="687"/>
      <point x="998" y="645" type="curve" smooth="yes"/>
      <point x="998" y="546"/>
      <point x="950" y="458"/>
      <point x="873" y="393" type="curve"/>
      <point x="950" y="329"/>
      <point x="998" y="242"/>
      <point x="998" y="144" type="curve" smooth="yes"/>
      <point x="998" y="-59"/>
      <point x="796" y="-218"/>
      <point x="552" y="-218" type="curve" smooth="yes"/>
      <point x="302" y="-218"/>
      <point x="100" y="-59"/>
    </contour>
    <contour>
      <point x="356" y="644" type="curve" smooth="yes"/>
      <point x="356" y="581"/>
      <point x="446" y="502"/>
      <point x="552" y="502" type="curve" smooth="yes"/>
      <point x="687" y="502"/>
      <point x="740" y="581"/>
      <point x="740" y="644" type="curve"/>
      <point x="740" y="705"/>
      <point x="687" y="785"/>
      <point x="552" y="785" type="curve" smooth="yes"/>
      <point x="446" y="785"/>
      <point x="356" y="705"/>
    </contour>
  </outline>
</glyph>
<glyph name="paragraph" format="2">
  <advance width="1131"/>
  <unicode hex="00B6"/>
  <outline>
    <contour>
      <point x="431" y="0" type="line"/>
      <point x="691" y="0" type="line"/>
      <point x="691" y="1400" type="line"/>
      <point x="431" y="1400" type="line" smooth="yes"/>
      <point x="-9" y="1400"/>
      <point x="-11" y="562"/>
      <point x="431" y="560" type="curve"/>
    </contour>
    <contour>
      <point x="771" y="-4" type="line"/>
      <point x="1031" y="-4" type="line"/>
      <point x="1031" y="1396" type="line"/>
      <point x="771" y="1396" type="line"/>
    </contour>
  </outline>
</glyph>
<glyph name="questiondown" format="2">
  <advance width="880"/>
  <unicode hex="00BF"/>
  <outline>
    <contour>
      <point x="60" y="-78" type="curve"/>
      <point x="232" y="94" type="line"/>
      <point x="264" y="62"/>
      <point x="312" y="40"/>
      <point x="374" y="40" type="curve" smooth="yes"/>
      <point x="506" y="40"/>
      <point x="562" y="144"/>
      <point x="562" y="214" type="curve" smooth="yes"/>
      <point x="562" y="290"/>
      <point x="478" y="376"/>
      <point x="374" y="376" type="curve"/>
      <point x="374" y="626" type="line"/>
      <point x="664" y="626"/>
      <point x="820" y="478"/>
      <point x="820" y="214" type="curve" smooth="yes"/>
      <point x="820" y="-20"/>
      <point x="618" y="-200"/>
      <point x="374" y="-200" type="curve" smooth="yes"/>
      <point x="254" y="-200"/>
      <point x="142" y="-152"/>
    </contour>
    <contour>
      <point x="244" y="1070" type="curve" smooth="yes"/>
      <point x="244" y="1142"/>
      <point x="302" y="1200"/>
      <point x="374" y="1200" type="curve" smooth="yes"/>
      <point x="446" y="1200"/>
      <point x="504" y="1142"/>
      <point x="504" y="1070" type="curve" smooth="yes"/>
      <point x="504" y="998"/>
      <point x="446" y="940"/>
      <point x="374" y="940" type="curve" smooth="yes"/>
      <point x="302" y="940"/>
      <point x="244" y="998"/>
    </contour>
    <contour>
      <point x="244" y="820" type="line"/>
      <point x="504" y="820" type="line"/>
      <point x="504" y="376" type="line"/>
      <point x="244" y="376" type="line"/>
    </contour>
  </outline>
</glyph>
<glyph name="AE" format="2">
  <advance width="1540"/>
  <unicode hex="00C6"/>
  <outline>
    <contour>
      <point x="900" y="700" type="move"/>
    </contour>
    <contour>
      <point x="60" y="0" type="line"/>
      <point x="320" y="0" type="line"/>
      <point x="388" y="298" type="line"/>
      <point x="578" y="298" type="line"/>
      <point x="640" y="0" type="line"/>
      <point x="1480" y="0" type="line"/>
      <point x="1480" y="260" type="line"/>
      <point x="900" y="260" type="line"/>
      <point x="900" y="570" type="line"/>
      <point x="1480" y="570" type="line"/>
      <point x="1480" y="830" type="line"/>
      <point x="900" y="830" type="line"/>
      <point x="900" y="1140" type="line"/>
      <point x="1480" y="1140" type="line"/>
      <point x="1480" y="1400" type="line"/>
      <point x="350" y="1400" type="line"/>
    </contour>
    <contour>
      <point x="448" y="558" type="line"/>
      <point x="488" y="734" type="line"/>
      <point x="524" y="558" type="line"/>
    </contour>
  </outline>
</glyph>
<glyph name="multiply" format="2">
  <advance width="984"/>
  <unicode hex="00D7"/>
  <outline>
    <contour>
      <point x="701" y="942" type="line"/>
      <point x="100" y="341" type="line"/>
      <point x="283" y="158" type="line"/>
      <point x="884" y="759" type="line"/>
    </contour>
    <contour>
      <point x="884" y="341" type="line"/>
      <point x="283" y="942" type="line"/>
      <point x="100" y="759" type="line"/>
      <point x="701" y="158" type="line"/>
    </contour>
  </outline>
</glyph>
<glyph name="germandbls" format="2">
  <advance width="1000"/>
  <unicode hex="00DF"/>
  <outline>
    <contour>
      <point x="60" y="-2" type="line"/>
      <point x="320" y="-2" type="line"/>
      <point x="320" y="1138" type="line"/>
      <point x="570" y="1138" type="line" smooth="yes"/>
      <point x="700" y="1138"/>
      <point x="700" y="818"/>
      <point x="570" y="818" type="curve" smooth="yes"/>
      <point x="442" y="818" type="line"/>
      <point x="442" y="558" type="line"/>
      <point x="570" y="558" type="line" smooth="yes"/>
      <point x="700" y="558"/>
      <point x="700" y="256"/>
      <point x="570" y="256" type="curve" smooth="yes"/>
      <point x="442" y="258" type="line"/>
      <point x="442" y="-2" type="line"/>
      <point x="612" y="-2" type="line" smooth="yes"/>
      <point x="954.004" y="-2"/>
      <point x="1027.741" y="497.951"/>
      <point x="836.068" y="717.099" type="curve"/>
      <point x="976.93" y="960.646"/>
      <point x="887.49" y="1398"/>
      <point x="570" y="1398" type="curve" smooth="yes"/>
      <point x="150" y="1398" type="line" smooth="yes"/>
      <point x="60" y="1398"/>
      <point x="60" y="1318"/>
      <point x="60" y="1260" type="curve" smooth="yes"/>
    </contour>
  </outline>
</glyph>
<glyph name="ae" format="2">
  <advance width="1598"/>
  <unicode hex="00E6"/>
  <outline>
    <contour>
      <point x="454" y="504" type="line"/>
      <point x="580" y="504"/>
      <point x="614" y="464"/>
      <point x="614" y="348" type="curve"/>
      <point x="876" y="348" type="line"/>
      <point x="876" y="688"/>
      <point x="646" y="678"/>
      <point x="446" y="678" type="curve"/>
    </contour>
    <contour>
      <point x="876" y="348" type="line"/>
    </contour>
    <contour>
      <point x="446" y="0" type="line"/>
    </contour>
    <contour>
      <point x="876" y="348" type="line"/>
    </contour>
    <contour>
      <point x="414" y="202" type="curve"/>
      <point x="446" y="0" type="line"/>
      <point x="648" y="20"/>
      <point x="876" y="146"/>
      <point x="876" y="348" type="curve"/>
      <point x="614" y="348" type="line"/>
      <point x="614" y="244"/>
      <point x="540" y="202"/>
    </contour>
    <contour>
      <point x="446" y="202" type="line"/>
      <point x="358" y="202"/>
      <point x="282" y="224"/>
      <point x="282" y="348" type="curve"/>
      <point x="60" y="348" type="line"/>
      <point x="60" y="8"/>
      <point x="246" y="0"/>
      <point x="446" y="0" type="curve"/>
    </contour>
    <contour>
      <point x="490" y="504" type="curve"/>
      <point x="490" y="678" type="line"/>
      <point x="290" y="678"/>
      <point x="60" y="688"/>
      <point x="60" y="348" type="curve"/>
      <point x="282" y="348" type="line"/>
      <point x="282" y="406"/>
      <point x="284" y="506"/>
    </contour>
    <contour>
      <point x="168" y="1000" type="curve"/>
      <point x="168" y="796" type="line"/>
      <point x="574" y="842"/>
      <point x="674" y="792"/>
      <point x="674" y="662" type="curve"/>
      <point x="876" y="348" type="line"/>
      <point x="876" y="942"/>
      <point x="798" y="1100"/>
    </contour>
    <contour>
      <point x="676" y="200" type="line"/>
      <point x="678" y="0" type="line"/>
      <point x="874" y="0" type="line"/>
      <point x="876" y="348" type="line"/>
    </contour>
    <contour>
      <point x="700" y="420" type="line"/>
      <point x="958" y="420" type="line"/>
      <point x="958" y="580" type="line"/>
      <point x="700" y="580" type="line"/>
    </contour>
    <contour>
      <point x="958" y="56" type="move"/>
    </contour>
    <contour>
      <point x="958" y="56" type="move"/>
    </contour>
    <contour>
      <point x="958" y="56" type="move"/>
    </contour>
    <contour>
      <point x="1088" y="256" type="curve"/>
      <point x="1108" y="0" type="line"/>
      <point x="1352" y="0"/>
      <point x="1432" y="48"/>
      <point x="1490" y="170" type="curve"/>
      <point x="1324" y="314" type="line"/>
      <point x="1272" y="238"/>
      <point x="1154" y="256"/>
    </contour>
    <contour>
      <point x="1088" y="256" type="line"/>
      <point x="992" y="256"/>
      <point x="958" y="314"/>
      <point x="958" y="420" type="curve"/>
      <point x="700" y="420" type="line"/>
      <point x="700" y="170"/>
      <point x="888" y="0"/>
      <point x="1108" y="0" type="curve"/>
    </contour>
    <contour>
      <point x="1088" y="744" type="line"/>
      <point x="1214" y="744"/>
      <point x="1276" y="708"/>
      <point x="1276" y="600" type="curve"/>
      <point x="1538" y="600" type="line"/>
      <point x="1538" y="868"/>
      <point x="1308" y="1000"/>
      <point x="1108" y="1000" type="curve"/>
    </contour>
    <contour>
      <point x="1088" y="744" type="curve"/>
      <point x="1108" y="1000" type="line"/>
      <point x="888" y="1000"/>
      <point x="700" y="830"/>
      <point x="700" y="580" type="curve"/>
      <point x="958" y="580" type="line"/>
      <point x="958" y="686"/>
      <point x="992" y="744"/>
    </contour>
    <contour>
      <point x="930" y="600" type="line"/>
      <point x="930" y="438" type="line"/>
      <point x="1538" y="440" type="line"/>
      <point x="1538" y="600" type="line"/>
    </contour>
  </outline>
</glyph>
<glyph name="ccedilla" format="2">
  <advance width="958"/>
  <unicode hex="00E7"/>
  <outline>
    <contour>
      <point x="318" y="56" type="move"/>
    </contour>
    <contour>
      <point x="318" y="56" type="move"/>
    </contour>
    <contour>
      <point x="318" y="56" type="move"/>
    </contour>
    <contour>
      <point x="337" y="25" type="line"/>
      <point x="337" y="-61"/>
      <point x="290" y="-138"/>
      <point x="184" y="-138" type="curve"/>
      <point x="347" y="-273" type="line"/>
      <point x="483" y="-274"/>
      <point x="597" y="-138"/>
      <point x="597" y="25" type="curve"/>
    </contour>
    <component base="c"/>
  </outline>
</glyph>
<glyph name="eth" format="2">
  <advance width="977"/>
  <unicode hex="00F0"/>
  <outline>
    <contour>
      <point x="640" y="56" type="move"/>
    </contour>
    <contour>
      <point x="640" y="56" type="move"/>
    </contour>
    <contour>
      <point x="640" y="56" type="move"/>
    </contour>
    <contour>
      <point x="60" y="420" type="line" smooth="yes"/>
      <point x="60" y="80"/>
      <point x="290" y="0"/>
      <point x="490" y="0" type="curve" smooth="yes"/>
      <point x="545.042" y="0"/>
      <point x="591.321" y="10.641"/>
      <point x="629.776" y="30.515" type="curve"/>
      <point x="630" y="0" type="line"/>
      <point x="900" y="0" type="line"/>
      <point x="900" y="356.983"/>
      <point x="1000.937" y="988.609"/>
      <point x="710.997" y="1264.6" type="curve"/>
      <point x="816" y="1358" type="line"/>
      <point x="592" y="1432" type="line"/>
      <point x="524.966" y="1372.002" type="line"/>
      <point x="466.233" y="1390.162"/>
      <point x="398.972" y="1400"/>
      <point x="322" y="1400" type="curve"/>
      <point x="218" y="1210" type="line"/>
      <point x="258.27" y="1208.829"/>
      <point x="294.895" y="1204.013"/>
      <point x="328.176" y="1195.87" type="curve"/>
      <point x="230" y="1108" type="line"/>
      <point x="454" y="1036" type="line"/>
      <point x="511.551" y="1087.192" type="line"/>
      <point x="536.122" y="1058.99"/>
      <point x="556.384" y="1026.568"/>
      <point x="572.97" y="990.591" type="curve"/>
      <point x="547.856" y="996.786"/>
      <point x="520.252" y="1000"/>
      <point x="490" y="1000" type="curve" smooth="yes"/>
      <point x="290" y="1000"/>
      <point x="60" y="920"/>
      <point x="60" y="580" type="curve" smooth="yes"/>
    </contour>
    <contour>
      <point x="322" y="420" type="curve" smooth="yes"/>
      <point x="322" y="580" type="line" smooth="yes"/>
      <point x="322" y="728"/>
      <point x="384" y="744"/>
      <point x="510" y="744" type="curve" smooth="yes"/>
      <point x="606" y="744"/>
      <point x="640" y="686"/>
      <point x="640" y="580" type="curve" smooth="yes"/>
      <point x="640" y="420" type="line" smooth="yes"/>
      <point x="640" y="314"/>
      <point x="606" y="256"/>
      <point x="510" y="256" type="curve" smooth="yes"/>
      <point x="384" y="256"/>
      <point x="322" y="272"/>
    </contour>
  </outline>
</glyph>
<glyph name="odieresis" format="2">
  <advance width="980"/>
  <unicode hex="00F6"/>
  <outline>
    <contour>
      <point x="658" y="420" type="line"/>
      <point x="920" y="420" type="line"/>
      <point x="920" y="508" type="line"/>
      <point x="658" y="508" type="line"/>
    </contour>
    <contour>
      <point x="470" y="256" type="curve"/>
      <point x="490" y="0" type="line"/>
      <point x="690" y="0"/>
      <point x="920" y="80"/>
      <point x="920" y="420" type="curve"/>
      <point x="658" y="420" type="line"/>
      <point x="658" y="272"/>
      <point x="596" y="256"/>
    </contour>
    <contour>
      <point x="470" y="256" type="line"/>
      <point x="490" y="0" type="line"/>
    </contour>
    <contour>
      <point x="920" y="508" type="line"/>
      <point x="658" y="508" type="line"/>
    </contour>
    <contour>
      <point x="658" y="580" type="line"/>
      <point x="658" y="508" type="line"/>
      <point x="920" y="508" type="line"/>
      <point x="920" y="580" type="line"/>
    </contour>
    <contour>
      <point x="470" y="744" type="line"/>
      <point x="596" y="744"/>
      <point x="658" y="728"/>
      <point x="658" y="580" type="curve"/>
      <point x="920" y="580" type="line"/>
      <point x="920" y="920"/>
      <point x="690" y="1000"/>
      <point x="490" y="1000" type="curve"/>
    </contour>
    <contour>
      <point x="470" y="744" type="line"/>
      <point x="490" y="1000" type="line"/>
    </contour>
    <contour>
      <point x="322" y="420" type="line"/>
      <point x="322" y="508" type="line"/>
      <point x="60" y="508" type="line"/>
      <point x="60" y="420" type="line"/>
    </contour>
    <contour>
      <point x="510" y="256" type="line"/>
      <point x="384" y="256"/>
      <point x="322" y="272"/>
      <point x="322" y="420" type="curve"/>
      <point x="60" y="420" type="line"/>
      <point x="60" y="80"/>
      <point x="290" y="0"/>
      <point x="490" y="0" type="curve"/>
    </contour>
    <contour>
      <point x="510" y="256" type="line"/>
      <point x="490" y="0" type="line"/>
    </contour>
    <contour>
      <point x="322" y="508" type="line"/>
      <point x="60" y="508" type="line"/>
    </contour>
    <contour>
      <point x="322" y="508" type="line"/>
      <point x="60" y="508" type="line"/>
    </contour>
    <contour>
      <point x="322" y="508" type="line"/>
      <point x="60" y="508" type="line"/>
    </contour>
    <contour>
      <point x="510" y="744" type="line"/>
      <point x="490" y="1000" type="line"/>
    </contour>
    <contour>
      <point x="322" y="580" type="line"/>
      <point x="60" y="580" type="line"/>
      <point x="60" y="508" type="line"/>
      <point x="322" y="508" type="line"/>
    </contour>
    <contour>
      <point x="510" y="744" type="curve"/>
      <point x="490" y="1000" type="line"/>
      <point x="290" y="1000"/>
      <point x="60" y="920"/>
      <point x="60" y="580" type="curve"/>
      <point x="322" y="580" type="line"/>
      <point x="322" y="728"/>
      <point x="384" y="744"/>
    </contour>
    <component base="dieresiscomb" xOffset="18"/>
  </outline>
</glyph>
<glyph name="divide" format="2">
  <advance width="1050"/>
  <unicode hex="00F7"/>
  <outline>
    <contour>
      <point x="100" y="680" type="line"/>
      <point x="100" y="420" type="line"/>
      <point x="950" y="420" type="line"/>
      <point x="950" y="680" type="line"/>
    </contour>
    <contour>
      <point x="525" y="84" type="curve" smooth="yes"/>
      <point x="597" y="84"/>
      <point x="655" y="142"/>
      <point x="655" y="214" type="curve" smooth="yes"/>
      <point x="655" y="286"/>
      <point x="597" y="344"/>
      <point x="525" y="344" type="curve" smooth="yes"/>
      <point x="453" y="344"/>
      <point x="395" y="286"/>
      <point x="395" y="214" type="curve" smooth="yes"/>
      <point x="395" y="142"/>
      <point x="453" y="84"/>
    </contour>
    <contour>
      <point x="525" y="756" type="curve" smooth="yes"/>
      <point x="597" y="756"/>
      <point x="655" y="814"/>
      <point x="655" y="886" type="curve" smooth="yes"/>
      <point x="655" y="958"/>
      <point x="597" y="1016"/>
      <point x="525" y="1016" type="curve" smooth="yes"/>
      <point x="453" y="1016"/>
      <point x="395" y="958"/>
      <point x="395" y="886" type="curve" smooth="yes"/>
      <point x="395" y="814"/>
      <point x="453" y="756"/>
    </contour>
  </outline>
</glyph>
<glyph name="thorn" format="2">
  <advance width="960"/>
  <unicode hex="00FE"/>
  <outline>
    <contour>
      <point x="60" y="1400" type="line"/>
      <point x="60" y="-400" type="line"/>
      <point x="320" y="-400" type="line"/>
      <point x="320" y="1400" type="line"/>
    </contour>
    <contour>
      <point x="638" y="580" type="line"/>
      <point x="900" y="580" type="line"/>
    </contour>
    <contour>
      <point x="450" y="744" type="line"/>
      <point x="576" y="744"/>
      <point x="638" y="728"/>
      <point x="638" y="580" type="curve"/>
      <point x="900" y="580" type="line"/>
      <point x="900" y="920"/>
      <point x="670" y="1000"/>
      <point x="470" y="1000" type="curve"/>
    </contour>
    <contour>
      <point x="450" y="744" type="curve"/>
      <point x="470" y="1000" type="line"/>
      <point x="250" y="1000"/>
      <point x="170" y="830"/>
      <point x="170" y="580" type="curve"/>
      <point x="320" y="580" type="line"/>
      <point x="320" y="686"/>
      <point x="354" y="744"/>
    </contour>
    <contour>
      <point x="450" y="256" type="line"/>
      <point x="354" y="256"/>
      <point x="320" y="314"/>
      <point x="320" y="420" type="curve"/>
      <point x="170" y="420" type="line"/>
      <point x="170" y="170"/>
      <point x="250" y="0"/>
      <point x="470" y="0" type="curve"/>
    </contour>
    <contour>
      <point x="638" y="420" type="line"/>
      <point x="900" y="420" type="line"/>
    </contour>
    <contour>
      <point x="450" y="256" type="curve"/>
      <point x="470" y="0" type="line"/>
      <point x="670" y="0"/>
      <point x="900" y="80"/>
      <point x="900" y="420" type="curve"/>
      <point x="638" y="420" type="line"/>
      <point x="638" y="272"/>
      <point x="576" y="256"/>
    </contour>
    <contour>
      <point x="450" y="256" type="line"/>
      <point x="354" y="256"/>
      <point x="320" y="314"/>
      <point x="320" y="420" type="curve"/>
      <point x="170" y="420" type="line"/>
      <point x="170" y="170"/>
      <point x="250" y="0"/>
      <point x="470" y="0" type="curve"/>
    </contour>
    <contour>
      <point x="638" y="580" type="line"/>
      <point x="638" y="420" type="line"/>
      <point x="900" y="420" type="line"/>
      <point x="900" y="580" type="line"/>
    </contour>
  </outline>
</glyph>
<glyph name="Hbar" format="2">
  <advance width="1096"/>
  <unicode hex="0126"/>
  <outline>
    <contour>
      <point x="60" y="563" type="line"/>
      <point x="60" y="347" type="line"/>
      <point x="1036" y="347" type="line"/>
      <point x="1036" y="563" type="line"/>
    </contour>
    <component base="H" xOffset="66"/>
  </outline>
</glyph>
<glyph name="idotless" format="2">
  <advance width="400"/>
  <unicode hex="0131"/>
  <outline>
    <contour>
      <point x="70" y="1000" type="line"/>
      <point x="70" y="0" type="line"/>
      <point x="330" y="0" type="line"/>
      <point x="330" y="1000" type="line"/>
    </contour>
  </outline>
</glyph>
<glyph name="OE" format="2">
  <advance width="1871"/>
  <unicode hex="0152"/>
  <outline>
    <contour>
      <point x="613" y="0" type="move"/>
    </contour>
    <contour>
      <point x="613" y="0" type="move"/>
    </contour>
    <contour>
      <point x="1231" y="700" type="move"/>
    </contour>
    <contour>
      <point x="613" y="0" type="curve" smooth="yes"/>
      <point x="762.809" y="0"/>
      <point x="882.126" y="57.689"/>
      <point x="971" y="149.646" type="curve"/>
      <point x="971" y="0" type="line"/>
      <point x="1811" y="0" type="line"/>
      <point x="1811" y="260" type="line"/>
      <point x="1231" y="260" type="line"/>
      <point x="1231" y="570" type="line"/>
      <point x="1811" y="570" type="line"/>
      <point x="1811" y="830" type="line"/>
      <point x="1231" y="830" type="line"/>
      <point x="1231" y="1140" type="line"/>
      <point x="1811" y="1140" type="line"/>
      <point x="1811" y="1400" type="line"/>
      <point x="971" y="1400" type="line"/>
      <point x="971" y="1249.756" type="line"/>
      <point x="882.077" y="1342.061"/>
      <point x="762.727" y="1400"/>
      <point x="613" y="1400" type="curve" smooth="yes"/>
      <point x="-123" y="1400"/>
      <point x="-125" y="0"/>
    </contour>
    <contour>
      <point x="613" y="262" type="curve" smooth="yes"/>
      <point x="255" y="262"/>
      <point x="255" y="1140"/>
      <point x="613" y="1138" type="curve" smooth="yes"/>
      <point x="971" y="1140"/>
      <point x="971" y="262"/>
    </contour>
  </outline>
</glyph>
<glyph name="oe" format="2">
  <advance width="1560"/>
  <unicode hex="0153"/>
  <outline>
    <contour>
      <point x="60" y="420" type="line" smooth="yes"/>
      <point x="60" y="80"/>
      <point x="290" y="0"/>
      <point x="490" y="0" type="curve" smooth="yes"/>
      <point x="598.561" y="0"/>
      <point x="715.962" y="23.571"/>
      <point x="800.619" y="99.501" type="curve"/>
      <point x="873.602" y="36.103"/>
      <point x="968.616" y="0"/>
      <point x="1070" y="0" type="curve" smooth="yes"/>
      <point x="1314" y="0"/>
      <point x="1383" y="45"/>
      <point x="1459" y="167" type="curve"/>
      <point x="1286" y="314" type="line"/>
      <point x="1208" y="256"/>
      <point x="1136" y="256"/>
      <point x="1070" y="256" type="curve" smooth="yes"/>
      <point x="978.946" y="256"/>
      <point x="925.676" y="308.178"/>
      <point x="920.428" y="404" type="curve"/>
      <point x="1500" y="404" type="line"/>
      <point x="1500" y="580" type="line" smooth="yes"/>
      <point x="1500" y="848"/>
      <point x="1314" y="1000"/>
      <point x="1070" y="1000" type="curve" smooth="yes"/>
      <point x="968.616" y="1000"/>
      <point x="873.602" y="963.897"/>
      <point x="800.619" y="900.499" type="curve"/>
      <point x="715.962" y="976.429"/>
      <point x="598.561" y="1000"/>
      <point x="490" y="1000" type="curve" smooth="yes"/>
      <point x="290" y="1000"/>
      <point x="60" y="920"/>
      <point x="60" y="580" type="curve" smooth="yes"/>
    </contour>
    <contour>
      <point x="320" y="420" type="curve" smooth="yes"/>
      <point x="320" y="580" type="line" smooth="yes"/>
      <point x="320" y="719.954"/>
      <point x="377.23" y="741.87"/>
      <point x="490" y="743.839" type="curve"/>
      <point x="602.77" y="741.87"/>
      <point x="660" y="719.954"/>
      <point x="660" y="580" type="curve" smooth="yes"/>
      <point x="660" y="420" type="line" smooth="yes"/>
      <point x="660" y="280.046"/>
      <point x="602.77" y="258.13"/>
      <point x="490" y="256.161" type="curve"/>
      <point x="377.23" y="258.13"/>
      <point x="320" y="280.046"/>
    </contour>
    <contour>
      <point x="920" y="580" type="line"/>
      <point x="920" y="686"/>
      <point x="974" y="744"/>
      <point x="1070" y="744" type="curve" smooth="yes"/>
      <point x="1196" y="744"/>
      <point x="1240" y="688"/>
      <point x="1240" y="580" type="curve"/>
    </contour>
  </outline>
</glyph>
<glyph name="Tcedilla" format="2">
  <advance width="960"/>
  <unicode hex="0162"/>
  <outline>
    <contour>
      <point x="350" y="0" type="line"/>
      <point x="350" y="-86"/>
      <point x="282" y="-202"/>
      <point x="136" y="-202" type="curve"/>
      <point x="320" y="-338" type="line"/>
      <point x="530" y="-340"/>
      <point x="610" y="-88"/>
      <point x="610" y="0" type="curve"/>
    </contour>
    <component base="T"/>
  </outline>
</glyph>
<glyph name="scommaaccent" format="2">
  <advance width="916"/>
  <unicode hex="0219"/>
  <outline>
    <contour>
      <point x="362" y="22" type="curve"/>
      <point x="638" y="22" type="line"/>
      <point x="638" y="-66"/>
      <point x="554" y="-318"/>
      <point x="330" y="-316" type="curve"/>
      <point x="134" y="-180" type="line"/>
      <point x="290" y="-180"/>
      <point x="362" y="-64"/>
    </contour>
    <component base="s"/>
  </outline>
</glyph>
<glyph name="acutecomb" format="2">
  <unicode hex="0301"/>
  <outline>
    <contour>
      <point x="388" y="1099" type="line"/>
      <point x="608" y="1099" type="line"/>
      <point x="804" y="1301" type="line"/>
      <point x="544" y="1301" type="line"/>
    </contour>
  </outline>
</glyph>
<glyph name="tildecomb" format="2">
  <unicode hex="0303"/>
  <outline>
    <contour>
      <point x="200" y="1122" type="curve"/>
      <point x="420" y="1122" type="line"/>
      <point x="420" y="1300"/>
      <point x="778" y="900"/>
      <point x="778" y="1300" type="curve"/>
      <point x="558" y="1300" type="line"/>
      <point x="558" y="1134"/>
      <point x="200" y="1500"/>
    </contour>
  </outline>
</glyph>
<glyph name="caroncomb" format="2">
  <unicode hex="030C"/>
  <outline>
    <contour>
      <point x="224" y="1297" type="line"/>
      <point x="358" y="1099" type="line"/>
      <point x="668" y="1099" type="line"/>
      <point x="864" y="1301" type="line"/>
      <point x="618" y="1301" type="line"/>
      <point x="543.581" y="1203.385" type="line"/>
      <point x="432" y="1297" type="line"/>
    </contour>
  </outline>
</glyph>
<glyph name="commaturnedabovecomb" format="2">
  <unicode hex="0312"/>
  <outline>
    <contour>
      <point x="60" y="695" type="line"/>
      <point x="60" y="459" type="line"/>
      <point x="294" y="459" type="line"/>
      <point x="294" y="695" type="line"/>
    </contour>
    <contour>
      <point x="220" y="941" type="line"/>
      <point x="104" y="941"/>
      <point x="62" y="839"/>
      <point x="60" y="695" type="curve"/>
      <point x="168" y="695" type="line"/>
      <point x="168" y="839"/>
      <point x="190" y="877"/>
      <point x="220" y="877" type="curve"/>
    </contour>
  </outline>
</glyph>
<glyph name="commaaccentcomb" format="2">
  <unicode hex="0326"/>
  <outline>
    <contour>
      <point x="350" y="-38" type="line"/>
      <point x="190" y="-360" type="line"/>
      <point x="450" y="-360" type="line"/>
      <point x="610" y="-38" type="line"/>
    </contour>
  </outline>
</glyph>
<glyph name="cedillacomb" format="2">
  <unicode hex="0327"/>
  <outline>
    <contour>
      <point x="332" y="180" type="line"/>
      <point x="332" y="94"/>
      <point x="260" y="-22"/>
      <point x="104" y="-22" type="curve"/>
      <point x="300" y="-158" type="line"/>
      <point x="524" y="-160"/>
      <point x="608" y="92"/>
      <point x="608" y="180" type="curve"/>
    </contour>
  </outline>
</glyph>
<glyph name="ogonekcomb" format="2">
  <unicode hex="0328"/>
  <outline>
    <contour>
      <point x="486" y="0" type="curve"/>
      <point x="399" y="0"/>
      <point x="311" y="0"/>
      <point x="226" y="0" type="curve"/>
      <point x="226" y="-200"/>
      <point x="397" y="-365"/>
      <point x="592" y="-400" type="curve"/>
      <point x="686" y="-190" type="line"/>
      <point x="574" y="-190"/>
      <point x="486" y="-88"/>
    </contour>
  </outline>
</glyph>
<glyph name="strokeshortcomb" format="2">
  <unicode hex="0335"/>
  <outline>
    <contour>
      <point x="60" y="459" type="line"/>
      <point x="60" y="219" type="line"/>
      <point x="698" y="219" type="line"/>
      <point x="698" y="459" type="line"/>
    </contour>
  </outline>
</glyph>
<glyph name="strokelongcomb" format="2">
  <unicode hex="0336"/>
  <outline>
    <contour>
      <point x="74" y="373" type="line"/>
      <point x="74" y="215" type="line"/>
      <point x="824" y="215" type="line"/>
      <point x="824" y="373" type="line"/>
    </contour>
  </outline>
</glyph>
<glyph name="slashshortcomb" format="2">
  <unicode hex="0337"/>
  <outline>
    <contour>
      <point x="634" y="686" type="line"/>
      <point x="42" y="246" type="line"/>
      <point x="302" y="246" type="line"/>
      <point x="896" y="686" type="line"/>
    </contour>
    <contour>
      <point x="634" y="786" type="line"/>
      <point x="634" y="686" type="line"/>
      <point x="896" y="686" type="line"/>
      <point x="896" y="786" type="line"/>
    </contour>
  </outline>
</glyph>
<glyph name="quoteleft" format="2">
  <advance width="400"/>
  <unicode hex="2018"/>
  <outline>
    <contour>
      <point x="60" y="1084" type="line"/>
      <point x="120" y="516" type="line"/>
      <point x="340" y="516" type="line"/>
      <point x="280" y="1084" type="line"/>
    </contour>
  </outline>
</glyph>
<glyph name="quoteright" format="2">
  <advance width="400"/>
  <unicode hex="2019"/>
  <outline>
    <contour>
      <point x="120" y="1400" type="line"/>
      <point x="60" y="832" type="line"/>
      <point x="280" y="832" type="line"/>
      <point x="340" y="1400" type="line"/>
    </contour>
  </outline>
</glyph>
<glyph name="quotedblleft" format="2">
  <advance width="720"/>
  <unicode hex="201C"/>
  <outline>
    <contour>
      <point x="60" y="1400" type="line"/>
      <point x="120" y="832" type="line"/>
      <point x="340" y="832" type="line"/>
      <point x="280" y="1400" type="line"/>
    </contour>
    <contour>
      <point x="380" y="1400" type="line"/>
      <point x="440" y="832" type="line"/>
      <point x="660" y="832" type="line"/>
      <point x="600" y="1400" type="line"/>
    </contour>
  </outline>
</glyph>
<glyph name="dagger" format="2">
  <advance width="862"/>
  <unicode hex="2020"/>
  <outline>
    <contour>
      <point x="60" y="1131" type="line"/>
      <point x="350" y="1131" type="line"/>
      <point x="350" y="477" type="line"/>
      <point x="512" y="477" type="line"/>
      <point x="512" y="1131" type="line"/>
      <point x="802" y="1131" type="line"/>
      <point x="802" y="1293" type="line"/>
      <point x="512" y="1293" type="line"/>
      <point x="512" y="1600" type="line"/>
      <point x="350" y="1600" type="line"/>
      <point x="350" y="1293" type="line"/>
      <point x="60" y="1293" type="line"/>
    </contour>
  </outline>
</glyph>
<glyph name="bullet" format="2">
  <advance width="720"/>
  <unicode hex="2022"/>
  <outline>
    <contour>
      <point x="360" y="150" type="curve" smooth="yes"/>
      <point x="522" y="150"/>
      <point x="660" y="284"/>
      <point x="660" y="450" type="curve" smooth="yes"/>
      <point x="660" y="616"/>
      <point x="522" y="750"/>
      <point x="360" y="750" type="curve" smooth="yes"/>
      <point x="194" y="750"/>
      <point x="60" y="616"/>
      <point x="60" y="450" type="curve" smooth="yes"/>
      <point x="60" y="284"/>
      <point x="194" y="150"/>
    </contour>
  </outline>
</glyph>
<glyph name="guilsinglleft" format="2">
  <advance width="769"/>
  <unicode hex="2039"/>
  <outline>
    <contour>
      <point x="110" y="499" type="line"/>
      <point x="399" y="0" type="line"/>
      <point x="659" y="0" type="line"/>
      <point x="364" y="499" type="line"/>
      <point x="657" y="1000" type="line"/>
      <point x="396" y="1000" type="line"/>
    </contour>
  </outline>
</glyph>
<glyph name="euro" format="2">
  <advance width="1227"/>
  <unicode hex="20AC"/>
  <outline>
    <contour>
      <point x="100" y="744" type="line"/>
      <point x="299" y="744" type="line"/>
      <point x="296" y="671" type="line"/>
      <point x="125" y="671" type="line"/>
      <point x="101" y="458" type="line"/>
      <point x="308" y="458" type="line"/>
      <point x="308" y="130"/>
      <point x="537" y="0"/>
      <point x="807" y="0" type="curve" smooth="yes"/>
      <point x="936" y="0"/>
      <point x="1040" y="29"/>
      <point x="1096" y="65" type="curve"/>
      <point x="1097" y="325" type="line"/>
      <point x="1043" y="274"/>
      <point x="944" y="227"/>
      <point x="814" y="227" type="curve" smooth="yes"/>
      <point x="687" y="227"/>
      <point x="562" y="290"/>
      <point x="561" y="458" type="curve"/>
      <point x="851" y="458" type="line"/>
      <point x="875" y="671" type="line"/>
      <point x="557" y="671" type="line"/>
      <point x="557" y="744" type="line"/>
      <point x="916" y="744" type="line"/>
      <point x="941" y="959" type="line"/>
      <point x="567" y="959" type="line"/>
      <point x="567" y="1083"/>
      <point x="703" y="1152"/>
      <point x="831" y="1152" type="curve" smooth="yes"/>
      <point x="941" y="1152"/>
      <point x="1048" y="1136"/>
      <point x="1122" y="1088" type="curve"/>
      <point x="1127" y="1314" type="line"/>
      <point x="1037" y="1373"/>
      <point x="944" y="1400"/>
      <point x="814" y="1400" type="curve" smooth="yes"/>
      <point x="581" y="1400"/>
      <point x="312" y="1280"/>
      <point x="312" y="959" type="curve"/>
      <point x="124" y="959" type="line"/>
    </contour>
  </outline>
</glyph>
<glyph name="liraTurkish" format="2">
  <advance width="1170"/>
  <unicode hex="20BA"/>
  <outline>
    <contour>
      <point x="100" y="478" type="line"/>
      <point x="141" y="264" type="line"/>
      <point x="263" y="320" type="line"/>
      <point x="263" y="0" type="line"/>
      <point x="517" y="0" type="line" smooth="yes"/>
      <point x="848" y="0"/>
      <point x="1001" y="122"/>
      <point x="1070" y="366" type="curve"/>
      <point x="955" y="557" type="line"/>
      <point x="861" y="330"/>
      <point x="748" y="260"/>
      <point x="493" y="260" type="curve"/>
      <point x="493" y="427" type="line"/>
      <point x="779" y="559" type="line"/>
      <point x="736" y="776" type="line"/>
      <point x="492" y="662" type="line"/>
      <point x="492" y="728" type="line"/>
      <point x="782" y="864" type="line"/>
      <point x="738" y="1081" type="line"/>
      <point x="492" y="967" type="line"/>
      <point x="491" y="1400" type="line"/>
      <point x="263" y="1400" type="line"/>
      <point x="263" y="861" type="line"/>
      <point x="100" y="786" type="line"/>
      <point x="146" y="566" type="line"/>
      <point x="263" y="621" type="line"/>
      <point x="263" y="554" type="line"/>
    </contour>
  </outline>
</glyph>
<glyph name="leftArrow" format="2">
  <advance width="1601"/>
  <unicode hex="2190"/>
  <outline>
    <contour>
      <point x="231" y="543" type="line"/>
      <point x="1501" y="543" type="line"/>
      <point x="1500" y="804" type="line"/>
      <point x="230" y="804" type="line"/>
    </contour>
    <contour>
      <point x="694" y="80" type="line"/>
      <point x="877" y="263" type="line"/>
      <point x="283" y="857" type="line"/>
      <point x="100" y="674" type="line"/>
    </contour>
    <contour>
      <point x="100" y="674" type="line"/>
      <point x="284" y="490" type="line"/>
      <point x="878" y="1084" type="line"/>
      <point x="695" y="1267" type="line"/>
    </contour>
  </outline>
</glyph>
<glyph name="rightArrow" format="2">
  <advance width="1600"/>
  <unicode hex="2192"/>
  <outline>
    <contour>
      <point x="100" y="523" type="line"/>
      <point x="1003" y="524" type="line"/>
      <point x="723" y="244" type="line"/>
      <point x="906" y="61" type="line"/>
      <point x="1500" y="653" type="line"/>
      <point x="906" y="1247" type="line"/>
      <point x="723" y="1065" type="line"/>
      <point x="1003" y="785" type="line"/>
      <point x="100" y="784" type="line"/>
    </contour>
  </outline>
</glyph>
<glyph name="downArrow" format="2">
  <advance width="1388"/>
  <unicode hex="2193"/>
  <outline>
    <contour>
      <point x="100" y="529" type="line"/>
      <point x="694" y="-65" type="line"/>
      <point x="1288" y="529" type="line"/>
      <point x="1104" y="712" type="line"/>
      <point x="824" y="431.528" type="line"/>
      <point x="824" y="1335" type="line"/>
      <point x="564" y="1335" type="line"/>
      <point x="564" y="432.528" type="line"/>
      <point x="284" y="713" type="line"/>
    </contour>
  </outline>
</glyph>
<glyph name="leftRightArrow" format="2">
  <advance width="2106"/>
  <unicode hex="2194"/>
  <outline>
    <contour>
      <point x="100" y="674" type="line"/>
      <point x="694" y="80" type="line"/>
      <point x="877" y="263" type="line"/>
      <point x="597" y="543" type="line"/>
      <point x="1509" y="543" type="line"/>
      <point x="1229" y="263" type="line"/>
      <point x="1412" y="80" type="line"/>
      <point x="2006" y="674" type="line"/>
      <point x="1411" y="1267" type="line"/>
      <point x="1228" y="1084" type="line"/>
      <point x="1508" y="804" type="line"/>
      <point x="598" y="804" type="line"/>
      <point x="878" y="1084" type="line"/>
      <point x="695" y="1267" type="line"/>
    </contour>
  </outline>
</glyph>
<glyph name="upDownArrow" format="2">
  <advance width="1387"/>
  <unicode hex="2195"/>
  <outline>
    <contour>
      <point x="694" y="1627" type="line"/>
      <point x="100" y="1033" type="line"/>
      <point x="283" y="850" type="line"/>
      <point x="563" y="1130" type="line"/>
      <point x="563" y="218" type="line"/>
      <point x="283" y="498" type="line"/>
      <point x="100" y="315" type="line"/>
      <point x="694" y="-279" type="line"/>
      <point x="877" y="-96" type="line"/>
      <point x="1287" y="316" type="line"/>
      <point x="1104" y="499" type="line"/>
      <point x="824" y="219" type="line"/>
      <point x="824" y="1129" type="line"/>
      <point x="1104" y="849" type="line"/>
      <point x="1287" y="1032" type="line"/>
      <point x="877" y="1443" type="line"/>
    </contour>
  </outline>
</glyph>
<glyph name="northWestArrow" format="2">
  <advance width="1282"/>
  <unicode hex="2196"/>
  <outline>
    <contour>
      <point x="100" y="355" type="line"/>
      <point x="359" y="355" type="line"/>
      <point x="359" y="751" type="line"/>
      <point x="997" y="113" type="line"/>
      <point x="1182" y="297" type="line"/>
      <point x="543" y="936" type="line"/>
      <point x="939" y="936" type="line"/>
      <point x="939" y="1195" type="line"/>
      <point x="100" y="1195" type="line"/>
    </contour>
  </outline>
</glyph>
<glyph name="northEastArrow" format="2">
  <advance width="1282"/>
  <unicode hex="2197"/>
  <outline>
    <contour>
      <point x="100" y="297" type="line"/>
      <point x="285" y="113" type="line"/>
      <point x="923" y="751" type="line"/>
      <point x="923" y="355" type="line"/>
      <point x="1182" y="355" type="line"/>
      <point x="1182" y="1195" type="line"/>
      <point x="343" y="1195" type="line"/>
      <point x="343" y="936" type="line"/>
      <point x="739" y="936" type="line"/>
    </contour>
  </outline>
</glyph>
<glyph name="southEastArrow" format="2">
  <advance width="1282"/>
  <unicode hex="2198"/>
  <outline>
    <contour>
      <point x="100" y="1056" type="line"/>
      <point x="738" y="418" type="line"/>
      <point x="342" y="418" type="line"/>
      <point x="342" y="159" type="line"/>
      <point x="1182" y="158" type="line"/>
      <point x="1182" y="998" type="line"/>
      <point x="923" y="998" type="line"/>
      <point x="923" y="602" type="line"/>
      <point x="284" y="1241" type="line"/>
    </contour>
  </outline>
</glyph>
<glyph name="southWestArrow" format="2">
  <advance width="1282"/>
  <unicode hex="2199"/>
  <outline>
    <contour>
      <point x="940" y="140" type="line"/>
      <point x="940" y="399" type="line"/>
      <point x="544" y="399" type="line"/>
      <point x="1182" y="1038" type="line"/>
      <point x="998" y="1222" type="line"/>
      <point x="359" y="584" type="line"/>
      <point x="359" y="980" type="line"/>
      <point x="100" y="980" type="line"/>
      <point x="100" y="140" type="line"/>
    </contour>
  </outline>
</glyph>
<glyph name="emptyset" format="2">
  <advance width="1659"/>
  <unicode hex="2205"/>
  <outline>
    <contour>
      <point x="100" y="670" type="curve" smooth="yes"/>
      <point x="100" y="268"/>
      <point x="426" y="-60"/>
      <point x="830" y="-60" type="curve" smooth="yes"/>
      <point x="1233" y="-60"/>
      <point x="1559" y="268"/>
      <point x="1559" y="670" type="curve" smooth="yes"/>
      <point x="1559" y="1073"/>
      <point x="1233" y="1400"/>
      <point x="830" y="1400" type="curve" smooth="yes"/>
      <point x="426" y="1400"/>
      <point x="100" y="1073"/>
    </contour>
    <contour>
      <point x="310" y="670" type="curve" smooth="yes"/>
      <point x="310" y="956"/>
      <point x="543" y="1190"/>
      <point x="830" y="1190" type="curve" smooth="yes"/>
      <point x="1111" y="1190"/>
      <point x="1350" y="956"/>
      <point x="1350" y="670" type="curve" smooth="yes"/>
      <point x="1350" y="383"/>
      <point x="1117" y="150"/>
      <point x="830" y="150" type="curve" smooth="yes"/>
      <point x="543" y="150"/>
      <point x="310" y="383"/>
    </contour>
    <contour>
      <point x="1307" y="1333" type="line"/>
      <point x="169" y="195" type="line"/>
      <point x="353" y="11" type="line"/>
      <point x="1491" y="1149" type="line"/>
    </contour>
  </outline>
</glyph>
<glyph name="product" format="2">
  <advance width="1442"/>
  <unicode hex="220F"/>
  <outline>
    <contour>
      <point x="376" y="1400" type="line"/>
      <point x="376" y="-155" type="line"/>
      <point x="636" y="-155" type="line"/>
      <point x="636" y="1400" type="line"/>
    </contour>
    <contour>
      <point x="806" y="1400" type="line"/>
      <point x="806" y="-155" type="line"/>
      <point x="1066" y="-155" type="line"/>
      <point x="1066" y="1400" type="line"/>
    </contour>
    <contour>
      <point x="1382" y="1657" type="line"/>
      <point x="60" y="1660" type="line"/>
      <point x="60" y="1400" type="line"/>
      <point x="1382" y="1398" type="line"/>
    </contour>
  </outline>
</glyph>
<glyph name="summation" format="2">
  <advance width="1206"/>
  <unicode hex="2211"/>
  <outline>
    <contour>
      <point x="100" y="-154" type="line"/>
      <point x="1106" y="-154" type="line"/>
      <point x="1106" y="106" type="line"/>
      <point x="361" y="105" type="line"/>
      <point x="790" y="755" type="line"/>
      <point x="361" y="1400" type="line"/>
      <point x="1106" y="1400" type="line"/>
      <point x="1106" y="1659" type="line"/>
      <point x="100" y="1659" type="line"/>
      <point x="100" y="1400" type="line"/>
      <point x="520" y="755" type="line"/>
      <point x="100" y="105" type="line"/>
    </contour>
  </outline>
</glyph>
<glyph name="minus" format="2">
  <advance width="1050"/>
  <unicode hex="2212"/>
  <outline>
    <contour>
      <point x="950" y="680" type="line"/>
      <point x="100" y="680" type="line"/>
      <point x="100" y="420" type="line"/>
      <point x="950" y="420" type="line"/>
    </contour>
  </outline>
</glyph>
<glyph name="integral" format="2">
  <advance width="919"/>
  <unicode hex="222B"/>
  <outline>
    <contour>
      <point x="100" y="-155" type="line"/>
      <point x="1200" y="-155"/>
      <point x="117" y="1400"/>
      <point x="767" y="1400" type="curve"/>
      <point x="819" y="1659" type="line"/>
      <point x="-281" y="1658"/>
      <point x="802" y="102"/>
      <point x="152" y="105" type="curve"/>
    </contour>
  </outline>
</glyph>
<glyph name="approxequal" format="2">
  <advance width="1174"/>
  <unicode hex="2248"/>
  <outline>
    <contour>
      <point x="100" y="145" type="line"/>
      <point x="425" y="345"/>
      <point x="749" y="-46"/>
      <point x="1074" y="145" type="curve"/>
      <point x="1074" y="405" type="line"/>
      <point x="749" y="214"/>
      <point x="425" y="605"/>
      <point x="100" y="405" type="curve"/>
    </contour>
    <contour>
      <point x="100" y="569" type="line"/>
      <point x="425" y="769"/>
      <point x="749" y="378"/>
      <point x="1074" y="569" type="curve"/>
      <point x="1074" y="829" type="line"/>
      <point x="749" y="638"/>
      <point x="425" y="1029"/>
      <point x="100" y="829" type="curve"/>
    </contour>
  </outline>
</glyph>
<glyph name="notequal" format="2">
  <advance width="1174"/>
  <unicode hex="2260"/>
  <outline>
    <contour>
      <point x="100" y="825" type="line"/>
      <point x="100" y="565" type="line"/>
      <point x="1074" y="565" type="line"/>
      <point x="1074" y="825" type="line"/>
    </contour>
    <contour>
      <point x="100" y="405" type="line"/>
      <point x="100" y="145" type="line"/>
      <point x="1074" y="145" type="line"/>
      <point x="1074" y="405" type="line"/>
    </contour>
    <contour>
      <point x="599" y="1031" type="line"/>
      <point x="324" y="6" type="line"/>
      <point x="575" y="-61" type="line"/>
      <point x="850" y="963" type="line"/>
    </contour>
  </outline>
</glyph>
<glyph name="lozenge" format="2">
  <advance width="1387"/>
  <unicode hex="25CA"/>
  <outline>
    <contour>
      <point x="100" y="495" type="line"/>
      <point x="694" y="-99" type="line"/>
      <point x="1287" y="496" type="line"/>
      <point x="1104" y="679" type="line"/>
      <point x="824" y="399" type="line" smooth="yes"/>
      <point x="737" y="308"/>
      <point x="650" y="308"/>
      <point x="563" y="399" type="curve"/>
      <point x="563" y="398" type="line"/>
      <point x="283" y="678" type="line"/>
    </contour>
    <contour>
      <point x="100" y="863" type="line"/>
      <point x="283" y="680" type="line"/>
      <point x="563" y="960" type="line"/>
      <point x="563" y="959" type="line"/>
      <point x="650" y="1050"/>
      <point x="737" y="1050"/>
      <point x="824" y="959" type="curve" smooth="yes"/>
      <point x="1104" y="679" type="line"/>
      <point x="1287" y="862" type="line"/>
      <point x="694" y="1457" type="line"/>
    </contour>
  </outline>
</glyph>
<glyph name="circumflexcomb.case" format="2">
  <outline>
    <contour>
      <point x="440" y="1636" type="line"/>
      <point x="594" y="1438" type="line"/>
      <point x="840" y="1438" type="line"/>
      <point x="644" y="1636" type="line"/>
    </contour>
    <contour>
      <point x="334" y="1636" type="line"/>
      <point x="200" y="1438" type="line"/>
      <point x="408" y="1438" type="line"/>
      <point x="644" y="1636" type="line"/>
    </contour>
  </outline>
</glyph>
<glyph name="dieresiscomb.case" format="2">
  <outline>
    <contour>
      <point x="190" y="1468" type="curve" smooth="yes"/>
      <point x="260" y="1468"/>
      <point x="320" y="1526"/>
      <point x="320" y="1600" type="curve" smooth="yes"/>
      <point x="320" y="1672"/>
      <point x="260" y="1728"/>
      <point x="190" y="1728" type="curve" smooth="yes"/>
      <point x="118" y="1728"/>
      <point x="60" y="1672"/>
      <point x="60" y="1600" type="curve" smooth="yes"/>
      <point x="60" y="1526"/>
      <point x="118" y="1468"/>
    </contour>
    <contour>
      <point x="770" y="1468" type="curve" smooth="yes"/>
      <point x="840" y="1468"/>
      <point x="900" y="1526"/>
      <point x="900" y="1600" type="curve" smooth="yes"/>
      <point x="900" y="1672"/>
      <point x="840" y="1728"/>
      <point x="770" y="1728" type="curve" smooth="yes"/>
      <point x="698" y="1728"/>
      <point x="640" y="1672"/>
      <point x="640" y="1600" type="curve" smooth="yes"/>
      <point x="640" y="1526"/>
      <point x="698" y="1468"/>
    </contour>
  </outline>
</glyph>
<glyph name="dotaccentcomb.case" format="2">
  <outline>
    <contour>
      <point x="380" y="1468" type="curve" smooth="yes"/>
      <point x="450" y="1468"/>
      <point x="510" y="1526"/>
      <point x="510" y="1600" type="curve" smooth="yes"/>
      <point x="510" y="1672"/>
      <point x="450" y="1728"/>
      <point x="380" y="1728" type="curve" smooth="yes"/>
      <point x="308" y="1728"/>
      <point x="250" y="1672"/>
      <point x="250" y="1600" type="curve" smooth="yes"/>
      <point x="250" y="1526"/>
      <point x="308" y="1468"/>
    </contour>
  </outline>
</glyph>
<glyph name="gravecomb.case" format="2">
  <outline>
    <contour>
      <point x="384" y="1438" type="line"/>
      <point x="694" y="1438" type="line"/>
      <point x="458" y="1636" type="line"/>
      <point x="250" y="1636" type="line"/>
    </contour>
  </outline>
</glyph>
